<?xml version="1.0" encoding="UTF-8" standalone="no"?>
<!-- Created with Inkscape (http://www.inkscape.org/) -->

<svg
   xmlns:dc="http://purl.org/dc/elements/1.1/"
   xmlns:cc="http://creativecommons.org/ns#"
   xmlns:rdf="http://www.w3.org/1999/02/22-rdf-syntax-ns#"
   xmlns:svg="http://www.w3.org/2000/svg"
   xmlns="http://www.w3.org/2000/svg"
   xmlns:sodipodi="http://sodipodi.sourceforge.net/DTD/sodipodi-0.dtd"
   xmlns:inkscape="http://www.inkscape.org/namespaces/inkscape"
   id="svg2"
   version="1.1"
   inkscape:version="0.91 r13725"
   xml:space="preserve"
   width="207.2458"
   height="110.67342"
   viewBox="0 0 207.24579 110.67341"
   sodipodi:docname="hidden_66.svg"><sodipodi:namedview
     inkscape:current-layer="g10"
     fit-margin-bottom="0"
     fit-margin-right="0"
     fit-margin-left="0"
     fit-margin-top="0"
     pagecolor="#ffffff"
     bordercolor="#666666"
     borderopacity="1"
     objecttolerance="10"
     gridtolerance="10"
     guidetolerance="10"
     inkscape:pageopacity="0"
     inkscape:pageshadow="2"
     inkscape:window-width="1920"
     inkscape:window-height="1003"
     id="namedview4"
     showgrid="false"
     inkscape:zoom="1.4758791"
     inkscape:cx="60.52637"
     inkscape:cy="15.640425"
     inkscape:window-x="0"
     inkscape:window-y="24"
     inkscape:window-maximized="1" /><metadata
     id="metadata8"><rdf:RDF><cc:Work
         rdf:about=""><dc:format>image/svg+xml</dc:format><dc:type
           rdf:resource="http://purl.org/dc/dcmitype/StillImage" /><dc:title></dc:title></cc:Work></rdf:RDF></metadata><defs
     id="defs6"><clipPath
       clipPathUnits="userSpaceOnUse"
       id="clipPath398"><path
         d="m 8717.87,2798.26 c -45.93,36.88 -93.1,73.27 -146.82,97.44 -52.79,23.75 -110.35,34.97 -167.8,42.04 -201.24,24.77 -411.58,-1.05 -591.76,-94.04 -180.16,-92.98 -327.17,-256.7 -380.12,-452.41 -13.97,-51.64 -20.91,-108.95 2.83,-156.88 14.8,-29.9 40.18,-53.18 66.77,-73.32 97,-73.49 216.13,-113.84 336.64,-130.74 120.52,-16.91 243.06,-11.45 364.27,-0.57 222.21,19.96 446.28,59.16 646.72,157.13 51.6,25.22 102.16,54.86 141.19,96.98 35.68,38.5 60.33,87.02 71.21,138.31 14,65.91 -8.82,81.82 -55.31,125.61 -92.59,87.23 -188.63,170.8 -287.82,250.45 z"
         id="path400"
         inkscape:connector-curvature="0" /></clipPath><clipPath
       clipPathUnits="userSpaceOnUse"
       id="clipPath510"><path
         d="m 3541.78,9423.48 c -0.5,-68.85 -0.01,-137.82 -4.98,-205.97 -11.65,-159.49 -25.84,-319.18 -35.02,-478.94 -9.19,-160.06 -9.59,-321.6 22.26,-479.15 15.59,-77.11 30.57,-155.29 53.88,-230.48 10.87,-35.07 25.22,-70.27 50.09,-97.66 3.55,-3.91 5.66,-6.9 6.79,-9.22 -0.02,0 -0.04,0.01 -0.06,0.01 -55.68,11.76 9.53,-19.58 0.06,-0.01 3.05,-0.65 5.97,-1.42 8.88,-2.19 -7.24,-60.88 -60.74,-113.04 -128.65,-129.06 -27.12,24.66 -48.92,55.04 -66.44,86.88 -44.95,81.73 -62.04,173.91 -81.65,263.96 -18.43,84.6 -36.16,169.08 -43.05,255.46 -7.16,89.72 -3.1,178.16 -2.85,267.86 0.25,86.36 9.81,172.73 17.73,258.63 8.23,89.22 7.97,178.5 17.3,267.62 7.14,68.12 8.17,136.68 8.79,205.26 5.44,-1.19 11.06,-2.16 17.05,-2.74 51.32,2.34 112.36,5.19 159.87,29.74 z"
         id="path512"
         inkscape:connector-curvature="0" /></clipPath></defs><g
     id="g10"
     inkscape:groupmode="layer"
     inkscape:label="ink_ext_XXXXXX"
     transform="matrix(1.25,0,0,-1.25,-493.50207,1201.1756)"><path
       inkscape:connector-curvature="0"
       id="path14"
       style="fill:#7bca2c;fill-opacity:1;fill-rule:nonzero;stroke:none"
       d="m 1019.67,542.167 c 5.53,-11.187 8.52,-28.975 4.73,-41.033 -4.89,-15.502 -25.627,-15.492 -27.193,1.975 -0.923,10.29 -0.305,16.766 -6.206,26.274 -4.701,7.575 -7.21,14.794 -9.685,23.12 -5.255,17.672 -7.164,33.389 -6.271,51.787 0.563,11.614 -2.498,43.196 18.498,37.728 16.827,-4.382 10.667,-29.778 9.967,-41.636 -1.3,-21.888 6.63,-38.945 16.16,-58.215" /><path
       inkscape:connector-curvature="0"
       id="path16"
       style="fill:#31ad41;fill-opacity:1;fill-rule:nonzero;stroke:none"
       d="m 1071.04,487.592 c -1.98,-6.909 -9.4,-22.925 -19.09,-17.867 -6.33,3.308 -6.46,17.98 -7.35,24.099 -2,13.68 -0.47,31.715 -5.7,44.602 -3.76,9.286 -9.06,17.366 -10.24,27.716 -0.98,8.666 -2.16,19.286 -1.85,27.543 0.34,8.835 3.78,17.019 3.72,25.915 -0.1,16.942 -5.34,32.9 4.84,49.013 4.91,7.784 12.92,9.111 20.34,4.155 8.39,-5.608 9.55,-16.48 8.84,-25.917 -1.19,-15.685 -5.69,-31.951 -8.82,-47.391 -3.33,-16.395 -1,-23.931 3.73,-39.511 4.15,-13.706 10.42,-27.424 12.71,-41.612 1.6,-9.893 1.69,-20.934 -1.13,-30.745" /><path
       inkscape:connector-curvature="0"
       id="path18"
       style="fill:#7bca2c;fill-opacity:1;fill-rule:nonzero;stroke:none"
       d="m 1070.33,557.824 c -1.02,8.352 1.17,14.951 2.79,23.141 0.92,4.609 -0.74,18.231 0.81,21.245 4.67,9.064 15.35,0.1 18.77,-5.503 4.61,-7.547 4.57,-17.647 6.27,-25.915 3.43,-16.693 0.99,-34.909 1.85,-52.014 0.79,-15.821 3.74,-32.18 2.77,-47.861 -0.43,-6.963 -1.02,-13.953 -1.85,-21.27 -1.02,-9.048 -3.62,-9.006 -9.02,-15.027 -7.18,-8.003 -24.3,-17.381 -31.64,-2.545 -6.91,13.953 16.01,41.6 17.88,55.965 3.06,23.461 -5.83,46.732 -8.63,69.784" /><path
       inkscape:connector-curvature="0"
       id="path26"
       style="fill:#3082c3;fill-opacity:1;fill-rule:nonzero;stroke:none"
       d="m -117.9167,437.29174 c -17.326,4.979 -35.715,7.227 -51.316,16.097 -13.814,7.855 -32.754,19.547 -18.401,37.611 11.785,14.831 54.141,18.812 71.698,21.772 14.747,2.486 61.929998,15.087 57.383998,-14.583 -1.207,-7.874 -9.416,-19.697 -12.65,-26.846 -9.572,-21.114 -21.958,-41.167 -46.714998,-34.051" /><path
       inkscape:connector-curvature="0"
       id="path28"
       style="fill:#284080;fill-opacity:1;fill-rule:nonzero;stroke:none"
       d="m 61.288298,399.21874 c -18.17,2.356 -36.556,4.707 -55.1879995,8.964 -18.0530005,4.125 -35.8830005,10.322 -53.8530005,15.332 -12.874,3.589 -32.959,10.559 -35.74,25.995 -3.216,17.855 5.221,40.506 15.407,54.997 13.429,19.106 30.402,26.23 53.739,28.151 29.666,2.441 62.456,-6.086 85.011,-26.099 12.152,-10.784 22.256,-26.877 28.052,-41.947 5.135002,-13.352 -0.723,-38.274 -5.478,-51.443 -5.698,-15.781 -16.782,-15.917 -31.95,-13.95" /><path
       inkscape:connector-curvature="0"
       id="path30"
       style="fill:#dbd924;fill-opacity:1;fill-rule:nonzero;stroke:none"
       d="m 151.7033,390.26874 c -15.014,0.404 -40.358,-2.704 -49.6,11.177 -8.943002,13.43 -12.852002,31.481 -22.110002,45.452 -11.009,16.614 -26.764,42.148 -24.586,63.233 2.413,23.365 25.236,2.416 34.516,-5.915 17.164002,-15.408 35.555002,-30.728 51.498002,-47.5 12.679,-13.339 24.036,-26.464 38.402,-38.321 4.779,-3.944 19.557,-13.574 17.651,-21.42 -2.919,-12.017 -36.814,-6.947 -45.771,-6.706" /><path
       inkscape:connector-curvature="0"
       id="path32"
       style="fill:#555957;fill-opacity:1;fill-rule:nonzero;stroke:none"
       d="m -68.402702,103.99674 c -0.456,-2.224 1.167,-4.436004 3.625,-4.940004 l 0,0 c 2.458,-0.503 4.82,0.892 5.276,3.117004 l 94.498,461.231 c 0.456,2.225 -1.167,4.436 -3.625,4.94 l 0,0 c -2.458,0.503 -4.82,-0.892 -5.276,-3.117 l -94.498,-461.231" /><path
       inkscape:connector-curvature="0"
       id="path34"
       style="fill:#585559;fill-opacity:1;fill-rule:nonzero;stroke:none"
       d="m 22.069298,568.58174 c 3.474,3.287 6.638,20.16 14.279,15.345 5.48,-3.452 -2.074,-16.1 5.346,-21.735 l -19.625,6.39" /><path
       inkscape:connector-curvature="0"
       id="path36"
       style="fill:#9f24db;fill-opacity:1;fill-rule:nonzero;stroke:none"
       d="m -201.2097,500.60374 103.910998,-19.425 c 22.419,43.21 64.707,81.761 112.507,89.801 -26.719,3.377 -53.974,1.152 -80.402,-5.058 -47.441998,-11.147 -101.683998,-28.648 -136.015998,-65.318" /><path
       inkscape:connector-curvature="0"
       id="path38"
       style="fill:#394cc4;fill-opacity:1;fill-rule:nonzero;stroke:none"
       d="m 48.469298,563.64674 c -10.926,3.515 -22.046,5.916 -33.261,7.333 -47.8,-8.04 -90.088,-46.591 -112.507,-89.801 l 206.980002,-38.695 c -3.945,45.905 -25.715002,92.462 -61.212002,121.163" /><path
       inkscape:connector-curvature="0"
       id="path42"
       style="fill:#c4394b;fill-opacity:1;fill-rule:nonzero;stroke:none"
       d="m 109.3043,443.39074 c -1.754,-10.002 -2.866,-14.856 -9.756002,-22.485 -4.02,-4.45 -5.094,-5.715 -10.636,-4.475 -4.732,1.059 -9.204,2.118 -13.766,3.673 -23.963,8.169 -50.783,10.142 -74.67099954,17.929 -17.41300046,5.677 -38.19100046,10.348 -56.72700046,11.835 -8.956,0.719 -18.833,-1.457 -27.098,3.302 -5.804,3.341 -12.13,10.265 -14.301,16.816 -2.706998,8.169 0.372,13.276 7.769,16.944 5.097,2.527 10.54,4.364 16.207,5.037 17.151,2.037 35.336,2.053 52.591,2.988 l 130.388002,-51.564" /><path
       inkscape:connector-curvature="0"
       id="path46"
       style="fill:#3024db;fill-opacity:1;fill-rule:nonzero;stroke:none"
       d="m -97.431702,480.90774 c -4.103998,-6.188 -1.942,-19.504 -11.441998,-22.054 -4.002,-1.074 -9.615,0.729 -13.732,0.623 -5.065,-0.131 -9.593,0.809 -14.734,1.479 -10.695,1.393 -20.234,4.255 -30.451,7.141 -9.68,2.735 -21.206,4.5 -30.179,8.838 -6.119,2.958 -6.888,10.056 -5.963,16.088 1.329,8.665 6.086,7.701 12.666,11.573 l 93.834998,-23.688" /><path
       inkscape:connector-curvature="0"
       id="path48"
       style="fill:#bcd848;fill-opacity:1;fill-rule:nonzero;stroke:none"
       d="m 31.454298,554.31974 c -0.115,-0.133 -0.229,-0.269 -0.342,-0.409 -6.763,-8.307 -5.214,-23.521 -10.745,-32.924 -6.411,-10.9 -18.5429995,-21.254 -19.60899954,-34.545 -2.14999996,-26.806 31.65699954,-23.967 48.59699954,-26.618 16.514,-2.584 43.444,-14.914 44.407,12.611 0.635,18.161 -11.56,36.991 -19.576,52.461 -2.343,3.356 -4.835,6.664 -7.375,9.927 -2.54,3.262 -5.128,6.478 -7.714,9.657 -6.031,9.802 -18.398,20.563 -27.643,9.84" /><path
       inkscape:connector-curvature="0"
       id="path50"
       style="fill:#8e49f5;fill-opacity:1;fill-rule:nonzero;stroke:none"
       d="m 150.9333,502.68374 c 8.669,-8.822 16.096,-17.94 20.412,-23.07 7.939,-9.438 21.867,-27.364 23.179,-39.595 1.701,-15.86 -11.974,-16.399 -23.208,-9.722 -19.767,11.749 -17.217,22.625 -26.004,41.879 -4.674,10.246 -11.854,20.056 -20.236,27.556 -3.495,3.126 -28.816002,22.009 -16.642,25.836 12.468,3.889 28.991,-9.139 42.499,-22.884" /><path
       inkscape:connector-curvature="0"
       id="path52"
       style="fill:#37e1b0;fill-opacity:1;fill-rule:nonzero;stroke:none"
       d="m -51.512702,550.31474 c -9.669,-6.378 -21.225,-13.783 -29.572,-21.533 -12.169,-11.298 -18.463,-31.589 -33.009998,-39.414 -14.174,-7.625 -34.993,6.79 -23.785,21.841 8.926,11.987 26.981,21.51 39.332998,29.604 12.215,8.005 25.723,15.939 39.52,21.198 4.24,1.617 14.999,6.777 19.546,3.53 9.705,-6.932 -6.945,-11.871 -12.032,-15.226" /><path
       inkscape:connector-curvature="0"
       id="path234"
       style="fill:#f8a667;fill-opacity:1;fill-rule:nonzero;stroke:none"
       d="m 992.586,162.266 c -6.479,-1.922 -7.243,-3.68 -3.79,-9.791 2.753,-4.874 6.678,-7.7 11.214,-10.808 4.27,-2.921 14.32,-5.932 17.05,-10.177 3.26,-5.059 -1.16,-7.485 4.96,-12.079 4,-3.006 6.7,-3.669 11.5,-2.713 10.54,2.102 13.68,-2.25 23.28,-6.216 5.03,-2.077 7.44,-1.412 12.46,-0.157 5.8,1.449 9.46,0.854 15.39,-0.411 8.12,-1.731 20.12,-0.716 27.09,5.25 2.96,2.534 5.55,7.119 8.66,10.207 4,3.973 4.09,5.819 -0.55,10.192 -4.28,4.027 -10.2,5.057 -15.21,7.839 -8.58,4.768 -16.65,9.067 -25.72,13.061 -12.8,5.628 -26.45,9.335 -40.29,11.212 -15.12,2.051 -31.58,-1.116 -46.044,-5.409" /><path
       inkscape:connector-curvature="0"
       id="path236"
       style="fill:#d0cecd;fill-opacity:1;fill-rule:nonzero;stroke:none"
       d="m 1004.04,157.527 c 1.86,-5.806 0.68,-10.445 6.12,-14.416 4.92,-3.586 3.34,-9.207 5.4,-14.428 1.86,-4.725 6.5,-7.767 11.16,-9.381 2.68,-0.925 5.41,-1.66 7.7,0.3 2.49,2.136 3.46,6.322 6.02,8.729 4.21,3.96 10.92,3.109 13.34,-2.511 1.95,-4.512 0.19,-12.967 4.58,-16.328 7.12,-5.44 15.27,7.636 21.73,7.686 5.48,0.042 10.67,-5.609 16.22,-4.712 8.36,1.348 13.61,15.55 19.11,21.273 3.85,4.011 4.28,7.783 1.81,12.765 -4.58,9.217 -12.72,17.499 -19.38,25.258 -9.26,10.777 -22.8,27.998 -38.75,26.51 -17.53,-1.638 -33.61,-15.102 -45.09,-27.509 -2.15,-2.322 -9.97,-9.316 -9.25,-12.516 l -0.72,-0.72" /><path
       inkscape:connector-curvature="0"
       id="path238"
       style="fill:#e1dfdd;fill-opacity:1;fill-rule:nonzero;stroke:none"
       d="m 1056.3,206.544 c -4.91,7.183 -14.56,2.032 -20.54,-1.424 -10.4,-6.013 -19.82,-14.273 -28.51,-22.452 -5.05,-4.762 -4.93,-9.599 -4.3,-16.131 0.56,-5.661 1.34,-13.272 3.67,-18.319 6.48,0.281 9.53,-3.13 11.56,-9.066 1.95,-5.683 0.05,-12.352 3.24,-17.579 4.46,-7.323 14.7,-7.226 17.68,1.334 2.04,5.871 2.26,15.979 11.43,12.183 7.47,-3.091 7.6,-10.873 5.05,-17.21 -2.97,-7.372 -0.55,-10.619 7.58,-11.453 8.44,-0.865 8.68,5.562 11.77,11.453 3.49,6.665 11.03,7.819 15.52,1.432 1.53,-2.182 1.05,-5.718 4.04,-6.486 2.61,-0.667 5.05,1.881 6.76,3.352 2.4,2.067 4,4.617 6.22,6.757 1.77,1.708 4.23,2.515 5.5,4.587 1.56,2.535 -0.2,4.744 0.72,7.578 1.12,3.469 5.21,5.828 7.83,8.09 2.36,2.036 5.96,4.302 4.61,7.417 -1.33,3.072 -7.01,6.24 -9.2,9.072 -9.63,12.437 -18.69,24.959 -28.46,37.205 -2.99,3.75 -2.58,7.48 -8.02,7.858 -5.09,0.353 -7.62,-3.759 -11.86,-3.909 1.33,2.763 3.06,9.163 -0.75,11.046 -2.59,1.278 -5.14,-0.306 -7.32,-1.63 -0.33,-0.202 -5.66,-2.985 -5.66,-2.984 l 1.44,-0.721" /><path
       inkscape:connector-curvature="0"
       id="path240"
       style="fill:#d0cecd;fill-opacity:1;fill-rule:nonzero;stroke:none"
       d="m 1074.69,187.09 c -0.29,3.042 -3.61,17.535 -7.22,10.204 -1.76,-3.564 0.17,-9.368 0.36,-13.098 0.31,-6.07 -0.5,-12.01 -0.8,-18.019 -0.6,-11.994 -2.81,-23.305 -5.76,-34.602 -1.46,-5.578 -3.89,-10.973 -4.17,-16.659 -0.21,-4.134 0.67,-4.661 4.24,-4.947 2.98,-0.237 6.59,-0.67 8.58,1.784 1.93,2.378 2.12,7.327 2.68,10.162 1.18,6.057 3.13,12.085 3.88,18.232 1.07,8.721 -0.59,17.286 -1,25.912 -0.34,7.065 -0.14,14.067 -0.79,21.031" /><path
       inkscape:connector-curvature="0"
       id="path242"
       style="fill:#ffffff;fill-opacity:1;fill-rule:nonzero;stroke:none"
       d="m 1053.68,197.532 c -3.44,-7.158 -7.34,-16.214 -9.29,-23.867 -1.55,-6.112 -1.96,-12.458 -3.15,-18.381 -0.67,-3.328 -5,-13.396 -2.23,-15.822 4.95,3.226 8.55,6.193 14.41,2.477 2.8,-1.779 3.57,-3.857 6.02,-1 1.78,2.068 1.88,5.457 2.26,7.946 0.43,2.87 -0.09,5.626 0,8.642 0.14,4.373 1.38,8.575 1.83,12.886 0.81,7.829 0.57,15.599 1.05,23.516 0.25,4.1 4.18,9.241 2.87,13.435 -2.44,7.768 -12.32,-6.804 -13.77,-9.832" /><path
       inkscape:connector-curvature="0"
       id="path244"
       style="fill:#d0cecd;fill-opacity:1;fill-rule:nonzero;stroke:none"
       d="m 1036.48,148.876 c 1.62,7.654 7.19,13.682 15.13,14.057 8.14,0.384 10.41,-5.851 14.35,-11.505 0.58,8.865 -4.64,16.545 -14.34,16.551 -9.88,0.006 -16.09,-9.516 -15.14,-18.742 l 0,-0.361" /><path
       inkscape:connector-curvature="0"
       id="path246"
       style="fill:#d0cecd;fill-opacity:1;fill-rule:nonzero;stroke:none"
       d="m 1038.64,141.668 c -1.62,6.784 8.88,10.327 14.06,9.379 6.54,-1.196 12.14,-5.634 11.91,-12.874 -2.06,6.032 -7.83,7.461 -13.44,8.1 -2.87,0.328 -14.03,0.142 -12.53,-4.965 l 0,0.36" /><path
       inkscape:connector-curvature="0"
       id="path248"
       style="fill:#ffffff;fill-opacity:1;fill-rule:nonzero;stroke:none"
       d="m 1088.82,146.275 c 0.17,-3.702 2.75,-15.179 0.36,-18.39 -1.46,-1.972 -8.5,-0.936 -10.7,-0.774 -3.36,0.247 -3.28,-0.016 -2.27,3.568 2.6,9.24 2.59,17.506 2.15,27.237 -0.23,5.265 -0.02,10.544 -0.36,15.804 -0.45,7.024 1.06,13.88 -0.54,20.897 -0.49,2.139 -1.7,3.765 0.18,5.523 1.67,1.57 4.31,0.903 5.92,-0.322 5.55,-4.242 4.39,-16.061 4.75,-22.185 0.61,-10.443 0.01,-20.912 0.51,-31.358" /><path
       inkscape:connector-curvature="0"
       id="path250"
       style="fill:#d0cecd;fill-opacity:1;fill-rule:nonzero;stroke:none"
       d="m 1042.96,171.583 c 0.45,3.394 9.67,5.766 13.06,5.855 5.6,0.148 8.17,-3.315 9.31,-8.25 -0.12,7.195 -0.79,11.335 -9.03,11.766 -5.05,0.264 -14.67,-3.558 -13.34,-9.731 l 0,0.36" /><path
       inkscape:connector-curvature="0"
       id="path252"
       style="fill:#d0cecd;fill-opacity:1;fill-rule:nonzero;stroke:none"
       d="m 1047.29,185.279 c 3.76,5.985 16.81,1.225 17.66,-4.378 -0.03,5.496 -1.76,8.854 -7.57,9.423 -3.7,0.361 -10.24,-1.631 -11.17,-5.766 l 1.08,0.721" /><path
       inkscape:connector-curvature="0"
       id="path254"
       style="fill:#ffffff;fill-opacity:1;fill-rule:nonzero;stroke:none"
       d="m 1044.14,200.065 c 1.64,2.56 4.02,4.747 5.52,7.299 -3.79,1.018 -9.1,-3.084 -11.66,-5.577 -4.33,-4.208 -8.14,-9.663 -11.88,-14.405 -6.7,-8.496 -11.73,-18.262 -15.14,-28.511 -1.57,-4.69 1.2,-6.839 4.32,-10.615 1.72,-2.074 4.72,-6.783 7.42,-6.884 2.05,4.492 1.47,11.828 2.49,16.868 1.87,9.225 4.9,19.797 9.9,27.858 2.97,4.783 6.07,9.347 9.03,13.967" /><path
       inkscape:connector-curvature="0"
       id="path256"
       style="fill:#d0cecd;fill-opacity:1;fill-rule:nonzero;stroke:none"
       d="m 1008.72,157.166 c -0.27,0.095 -0.05,0.646 -0.67,0.27 -0.13,-0.15 -0.13,-0.158 0.02,-0.026 4.95,5.54 11.52,4.597 14.36,-2.327 2.05,-5.005 -1.17,-13.862 3.54,-16.963 -3.67,5.707 0.79,15.098 -2.18,21.218 -3.67,7.567 -11.75,4.618 -15.07,-1.451 l 0,-0.721" /><path
       inkscape:connector-curvature="0"
       id="path258"
       style="fill:#d0cecd;fill-opacity:1;fill-rule:nonzero;stroke:none"
       d="m 1011.97,167.618 c 1.25,3.226 9.09,14.289 14.15,10.552 5.06,-3.736 3.11,-16.898 3.17,-22.318 -2.12,5.251 0.56,12.695 -3.89,17.253 -3.65,3.746 -13.64,-1.678 -13.07,-5.487 l -0.36,0" /><path
       inkscape:connector-curvature="0"
       id="path260"
       style="fill:#d0cecd;fill-opacity:1;fill-rule:nonzero;stroke:none"
       d="m 1076.48,180.594 c 3.46,8.18 13,4.967 14.16,-2.838 0.14,-0.125 0.14,-0.119 0.01,0.019 -3.67,3.333 -10.06,5.922 -13.81,1.737 l -0.36,1.082" /><path
       inkscape:connector-curvature="0"
       id="path262"
       style="fill:#d0cecd;fill-opacity:1;fill-rule:nonzero;stroke:none"
       d="m 1076.48,164.014 c 2.07,7.901 12.91,8.739 15.16,0.488 -0.89,10.467 -12.5,9.777 -14.44,-0.127 l -0.72,-0.361" /><path
       inkscape:connector-curvature="0"
       id="path264"
       style="fill:#d0cecd;fill-opacity:1;fill-rule:nonzero;stroke:none"
       d="m 1077.2,146.714 c -0.37,5.064 5.3,9.232 10.09,8.65 4.88,-0.592 5.96,-5.22 7.25,-9.225 -1.76,3.001 -5.63,4.742 -9.05,4.9 -4.22,0.196 -5.36,-2.135 -8.61,-4.037 0.08,-0.349 0.26,-0.644 0.32,-1.009 l 0,0.721" /><path
       inkscape:connector-curvature="0"
       id="path266"
       style="fill:#d0cecd;fill-opacity:1;fill-rule:nonzero;stroke:none"
       d="m 1073.96,130.495 c 1.46,5.149 8.45,10.223 14.06,9.379 4.63,-0.698 7.5,-5.608 9.01,-8.703 -1.91,5.948 -1.87,11.635 -10.1,11.218 -7.03,-0.356 -10.67,-5.461 -12.25,-11.534 l -0.72,-0.36" /><path
       inkscape:connector-curvature="0"
       id="path268"
       style="fill:#d0cecd;fill-opacity:1;fill-rule:nonzero;stroke:none"
       d="m 1104.96,137.703 c 0.16,3.516 2.37,7.31 5.41,9.389 1.36,0.928 7.57,2.853 2.87,4.325 -5.49,1.723 -10.67,-10.637 -8.65,-14.074 l 0.37,0.36" /><path
       inkscape:connector-curvature="0"
       id="path270"
       style="fill:#d0cecd;fill-opacity:1;fill-rule:nonzero;stroke:none"
       d="m 1100.99,150.318 c -3.08,3.64 7.16,9.096 11.03,6.093 0.09,1.962 -1.59,4.271 -3.45,3.978 -5.41,2.203 -7.5,-5.318 -7.22,-9.35 l -0.36,-0.721" /><path
       inkscape:connector-curvature="0"
       id="path272"
       style="fill:#d0cecd;fill-opacity:1;fill-rule:nonzero;stroke:none"
       d="m 1095.59,123.286 c -0.32,-5.985 5.85,-5.021 8.92,-1.527 4.12,4.71 0.91,12.904 -0.53,17.828 -2.08,7.131 -2,14.403 -3.79,21.544 -2.15,8.571 -2.55,23.158 -9.58,29.157 -0.69,-6.785 0.41,-13.43 0.65,-20.407 0.23,-6.609 -0.2,-13.867 1.07,-20.275 1.17,-5.892 2.38,-11.42 3.25,-17.301 0.46,-3.062 0.17,-5.969 0.01,-9.019" /><path
       inkscape:connector-curvature="0"
       id="path274"
       style="fill:#d0cecd;fill-opacity:1;fill-rule:nonzero;stroke:none"
       d="m 1053.41,204.021 c -7.37,-5.027 -12.87,-14.626 -16.84,-22.695 -3.74,-7.589 -7.69,-15.017 -9.38,-23.438 -1.19,-5.928 -8.33,-34.609 1.35,-36.411 8.4,-1.563 7.06,19.447 7.56,23.811 1.17,10.066 2.9,20.236 5.86,29.96 1.77,5.792 3.95,11.03 6.86,16.148 1.09,1.924 7.77,13.787 4.59,13.706 l 0,-1.081" /><path
       inkscape:connector-curvature="0"
       id="path442"
       style="fill:#3e3734;fill-opacity:1;fill-rule:nonzero;stroke:none"
       d="m 966.986,434.914 c -6.822,9.096 -11.1,21.351 -5.283,31.916 6.23,11.315 18.714,20.403 28.104,29.002 9.34,8.553 20.153,21.4 33.143,24.176 9.45,2.021 18.78,-2.836 27.65,-5.457 11.38,-3.365 22.36,-6.171 31.81,-13.678 8.68,-6.89 14.7,-15.618 20.63,-24.749 8.56,-13.166 15.39,-28.525 4.69,-42.078 -12.56,-15.914 -41.57,-24.433 -61.04,-24.648 -8.83,-0.098 -16.95,5.081 -25.87,6.039 -19.74,2.118 -40.716,1.987 -53.834,19.477" /><path
       inkscape:connector-curvature="0"
       id="path444"
       style="fill:#4a4747;fill-opacity:1;fill-rule:nonzero;stroke:none"
       d="m 1071.83,425.066 c -16.01,-1.721 -27.25,1.773 -30.04,19.547 -3.48,22.241 15.31,61.407 41.79,48.601 9.78,-4.732 15.86,-15.908 19.53,-25.643 3.29,-8.749 6.61,-22.262 -1.37,-29.584 -7.26,-6.665 -20.25,-11.882 -29.91,-12.921" /><path
       inkscape:connector-curvature="0"
       id="path446"
       style="fill:#4a4747;fill-opacity:1;fill-rule:nonzero;stroke:none"
       d="m 1032.8,465.523 c 2.73,8.562 7.91,15.211 13.7,21.902 3.96,4.574 13,12.698 9.78,19.62 -2.98,6.414 -17.64,8.457 -23.86,8.462 -8.81,0.006 -14.39,-5.763 -21.38,-10.22 -11.241,-7.169 -18.75,-17.9 -29.286,-25.942 -7.823,-5.972 -18.034,-14.11 -13.163,-25.586 1.897,-4.472 7.552,-8.863 11.497,-11.222 6.618,-3.955 13.324,-8.132 20.032,-12.217 7.87,-4.785 20.76,-5.399 26.82,3.076 6.77,9.476 2.54,21.721 5.86,32.127" /><path
       inkscape:connector-curvature="0"
       id="path448"
       style="fill:#686a6d;fill-opacity:1;fill-rule:nonzero;stroke:none"
       d="m 1061.55,471.986 c 2.07,-3.092 5.67,-5.579 10.69,-6.549 13.16,-2.543 23.61,4.904 15.61,17.774 -2.88,4.631 -7.38,8.31 -13.08,8.63 -1.14,0.064 -2.35,-0.086 -3.57,-0.416 -11.37,-3.08 -14.16,-12.699 -9.65,-19.439" /><path
       inkscape:connector-curvature="0"
       id="path450"
       style="fill:#686a6d;fill-opacity:1;fill-rule:nonzero;stroke:none"
       d="m 1021.21,485.089 c -3.85,-0.192 -10.99,-0.779 -14.16,1.783 -4.72,3.804 -1.07,8.451 2.81,12.365 6.83,6.886 16.54,11.071 26.05,11.187 7.1,0.087 19.89,-6.763 12.94,-15.941 -1.9,-2.503 -8.84,-4.063 -11.68,-5.277 -5.13,-2.197 -10.33,-3.837 -15.96,-4.117" /><path
       inkscape:connector-curvature="0"
       id="path452"
       style="fill:#4a4747;fill-opacity:1;fill-rule:nonzero;stroke:none"
       d="m 1060.72,505.564 c 3.18,4.298 14.5,1.971 12.19,-4.106 -2.18,-5.705 -17.83,-3.513 -12.19,4.106" /><path
       inkscape:connector-curvature="0"
       id="path454"
       style="fill:#4a4747;fill-opacity:1;fill-rule:nonzero;stroke:none"
       d="m 1051.8,403.833 c -0.97,-14.155 -27.88,-17.834 -37.58,-12.877 -16.847,8.609 -0.82,26.7 9.19,33.059 8.66,5.506 15.3,1.732 20.74,-6.049 2.43,-3.476 7.97,-9.588 7.65,-14.133" /><path
       inkscape:connector-curvature="0"
       id="path456"
       style="fill:#5e5e60;fill-opacity:1;fill-rule:nonzero;stroke:none"
       d="m 1041.8,400.255 c 7.32,4.591 4.41,12.19 0.14,17.268 -5.92,7.04 -19.06,9.916 -19.89,-3.029 -0.6,-9.429 10.7,-19.901 19.75,-14.239" /><path
       inkscape:connector-curvature="0"
       id="path458"
       style="fill:#100f0d;fill-opacity:1;fill-rule:nonzero;stroke:none"
       d="m 988.838,822.695 c -5.803,-0.337 -10.737,-7.735 -18.103,-7.454 -6.342,0.241 -14.605,2.852 -11.06,11.112 0.62,-0.042 0.78,-0.251 1.343,-0.385 4.723,5.397 12.867,6.682 18.769,10.037 l 9.051,-13.31" /><path
       inkscape:connector-curvature="0"
       id="path460"
       style="fill:#f25a1c;fill-opacity:1;fill-rule:nonzero;stroke:none"
       d="m 1037.73,827.258 c 12.49,-2.429 37.62,-11.589 20.95,-25.982 -14.47,-12.498 -23.98,3.688 -29.3,18.823 l 8.35,7.159" /><path
       inkscape:connector-curvature="0"
       id="path462"
       style="fill:#100f0d;fill-opacity:1;fill-rule:nonzero;stroke:none"
       d="m 1058.68,801.276 c 7.97,6.879 6.38,12.561 1.2,16.886 0.59,-10.107 -8.71,-16.808 -18.28,-18.675 4.67,-3.627 10.33,-4.036 17.08,1.789" /><path
       inkscape:connector-curvature="0"
       id="path464"
       style="fill:#f25a1c;fill-opacity:1;fill-rule:nonzero;stroke:none"
       d="m 1048.63,899.293 c -6.22,9.488 -21.83,11.983 -31.77,14.55 -3.25,0.84 -34.28,6.252 -22.836,-5.825 -7.098,0.829 -13.387,-5.215 -14.029,-11.922 -1.085,-11.332 11.092,-4.69 19.122,-3.812 8.323,0.909 16.413,1.765 24.753,2.218 6.8,0.369 21.39,-3.062 25.56,3.194 l -0.8,1.597" /><path
       inkscape:connector-curvature="0"
       id="path466"
       style="fill:#100f0d;fill-opacity:1;fill-rule:nonzero;stroke:none"
       d="m 979.995,896.096 c 0.642,6.707 6.931,12.751 14.029,11.922 -8.795,9.282 7.496,8.234 16.986,6.87 -9.32,-3.169 -17.641,-10.832 -23.769,-18.187 -1.869,-2.024 -3.366,-4.327 -4.626,-6.791 -1.893,0.683 -2.977,2.458 -2.62,6.186" /><path
       inkscape:connector-curvature="0"
       id="path468"
       style="fill:#f25a1c;fill-opacity:1;fill-rule:nonzero;stroke:none"
       d="m 950.403,871.343 c -0.024,0.237 -0.837,0.623 -0.008,-0.398 0.022,0.012 0.04,0.012 0.054,0 -0.313,-0.016 -0.625,-0.044 -0.935,-0.085 0.452,0.323 0.777,0.751 0.973,1.283 -2.593,4.585 -9.393,13.935 -15.082,15.388 -11.22,2.865 -7.563,-9.46 -5.943,-16.207 2.018,-8.401 -6.763,-15.55 -3.854,-23.98 1.327,-3.846 5.9,-5.24 7.422,-9.346 1.402,-3.779 0.143,-8.567 -1.074,-12.172 11.019,-13.35 28.282,16.078 36.016,20.761 l -17.569,24.756" /><path
       inkscape:connector-curvature="0"
       id="path470"
       style="fill:#f25a1c;fill-opacity:1;fill-rule:nonzero;stroke:none"
       d="m 953.15,837.597 c 1.379,-1.539 2.859,-2.966 4.435,-4.291 1.352,-1.145 2.768,-2.215 4.243,-3.216 6.496,-4.419 14.013,-7.502 21.483,-9.69 0.958,-0.282 1.912,-0.549 2.865,-0.799 8.167,-2.156 16.694,-3.673 25.334,-4.424 2.07,-0.181 4.17,-0.33 6.28,-0.442 14.58,-0.767 29.67,0.287 43.55,4.786 2.63,0.852 5.21,1.826 7.75,2.939 0.1,0.043 0.19,0.085 0.29,0.128 17.06,7.603 33.61,25.231 28.65,45.272 -3.51,14.125 -15.78,21.829 -29.3,26.344 -5.92,1.97 -12.08,3.338 -17.84,4.355 -2.75,0.49 -5.41,0.9 -7.91,1.262 -11,1.592 -22.09,1.789 -32.95,0.5 -9.07,-1.07 -17.987,-3.178 -26.559,-6.367 -8.205,-3.046 -16.095,-7.087 -23.512,-12.161 -0.154,-0.106 -0.309,-0.213 -0.458,-0.325 -4.722,-3.348 -8.375,-7.885 -10.664,-12.948 -0.005,-0.005 -0.005,-0.005 -0.005,-0.011 -4.494,-9.935 -3.77,-21.887 4.318,-30.912" /><path
       inkscape:connector-curvature="0"
       id="path472"
       style="fill:#ffffff;fill-opacity:1;fill-rule:nonzero;stroke:none"
       d="m 948.762,856.929 c 1.316,-8.913 5.389,-15.829 8.823,-23.623 1.352,-1.145 2.768,-2.215 4.243,-3.216 1.539,3.61 2.88,8.055 2.992,11.702 0.187,6.23 -3.338,10.132 -4.211,15.973 -0.884,5.947 2.252,9.781 1.773,15.973 -0.213,2.72 -1.629,5.414 -2.881,7.73 -4.722,-3.348 -8.375,-7.885 -10.664,-12.948 -0.005,-0.005 -0.005,-0.005 -0.005,-0.011 -0.586,-3.849 -0.634,-7.757 -0.07,-11.58" /><path
       inkscape:connector-curvature="0"
       id="path474"
       style="fill:#ffffff;fill-opacity:1;fill-rule:nonzero;stroke:none"
       d="m 1025.47,861.758 c 0.66,-13.113 4.21,-26.711 15.01,-35.352 6.49,-5.186 13.52,-5.926 20.86,-6.885 2.63,0.852 5.21,1.826 7.75,2.939 0.1,0.043 0.19,0.085 0.29,0.128 -8.59,10.67 -19.19,16.851 -20.79,33.543 -1.3,13.443 6.73,32.126 20.14,38.073 -5.92,1.97 -12.08,3.338 -17.84,4.355 -3.75,-1.805 -7.09,-3.966 -9.4,-5.83 -10.11,-8.151 -16.7,-17.586 -16.02,-30.971" /><path
       inkscape:connector-curvature="0"
       id="path476"
       style="fill:#f25a1c;fill-opacity:1;fill-rule:nonzero;stroke:none"
       d="m 1041.8,861.538 c -7.37,6.496 -24.61,17.288 -24.68,-0.823 -0.05,-15.727 13.62,-13.003 24.68,-8.226 l 0,9.049" /><path
       inkscape:connector-curvature="0"
       id="path478"
       style="fill:#100f0d;fill-opacity:1;fill-rule:nonzero;stroke:none"
       d="m 1017.12,860.715 c 0.03,8.656 3.99,10.707 8.91,9.783 -5.96,-5.035 -5.25,-14.43 -1.69,-21.407 -4.28,0.974 -7.24,4.293 -7.22,11.624" /><path
       inkscape:connector-curvature="0"
       id="path480"
       style="fill:#f25a1c;fill-opacity:1;fill-rule:nonzero;stroke:none"
       d="m 1023.36,824.958 c -11.85,-6.001 -34.043,-22.24 -11.34,-31.394 19.72,-7.949 23.15,10.576 22.7,26.859 l -11.36,4.535" /><path
       inkscape:connector-curvature="0"
       id="path482"
       style="fill:#100f0d;fill-opacity:1;fill-rule:nonzero;stroke:none"
       d="m 1012.02,793.564 c -10.85,4.375 -11.44,10.368 -7.81,16.089 3.33,-10.013 15.48,-13.826 26.02,-12.854 -3.37,-4.89 -9.02,-6.94 -18.21,-3.235" /><path
       inkscape:connector-curvature="0"
       id="path484"
       style="fill:#ffffff;fill-opacity:1;fill-rule:nonzero;stroke:none"
       d="m 983.311,820.4 c 0.958,-0.282 1.912,-0.549 2.865,-0.799 8.167,-2.156 16.694,-3.673 25.334,-4.424 2.07,-0.181 4.17,-0.33 6.28,-0.442 0.17,0.49 0.28,1.017 0.34,1.586 0.74,6.794 -8.99,16.271 -11.06,22.879 -2.59,8.289 -1.94,17.186 1.87,24.624 4.16,8.125 4.41,14.977 4.92,24.358 0.28,5.122 -0.58,9.754 -3.83,12.139 l -26.559,-6.367 c 0.697,-4.26 2.918,-9.866 1.523,-13.625 -3.69,-9.935 -1.8,-15.69 -0.937,-25.689 0.931,-10.75 -4.286,-24.556 -0.746,-34.24" /><path
       inkscape:connector-curvature="0"
       id="path486"
       style="fill:#100f0d;fill-opacity:1;fill-rule:nonzero;stroke:none"
       d="m 929.462,871.324 c -1.611,6.711 -5.232,18.936 5.772,16.245 -4.977,-7.216 0.505,-18.889 -1.768,-27.073 -1.065,-2.662 -3.194,-4.259 -4.792,-6.389 -1.065,-2.129 0.533,-4.259 1.598,-6.389 3.194,-5.324 10.648,-9.051 9.051,-16.505 0,0 -0.533,-1.065 -1.065,-1.597 -2.006,-3.008 0.71,-5.544 3.256,-6.718 -3.422,-1.115 -6.701,-0.534 -9.558,2.928 1.217,3.605 2.476,8.393 1.074,12.172 -1.522,4.106 -6.095,5.5 -7.422,9.346 -2.909,8.43 5.872,15.579 3.854,23.98" /><path
       inkscape:connector-curvature="0"
       id="path488"
       style="fill:#ffffff;fill-opacity:1;fill-rule:nonzero;stroke:none"
       d="m 1062.3,872.861 c -0.9,9.745 8.95,15.357 15.51,7.948 4.53,-5.127 5.31,-14.287 -2.19,-16.717 -6.35,-2.057 -12.74,2.447 -13.32,8.769" /><path
       inkscape:connector-curvature="0"
       id="path490"
       style="fill:#100f0d;fill-opacity:1;fill-rule:nonzero;stroke:none"
       d="m 1070.3,868.06 c -4.61,1.256 -4.72,11.015 0.47,11.667 6.57,0.827 7.2,-13.757 -0.47,-11.667" /><path
       inkscape:connector-curvature="0"
       id="path492"
       style="fill:#ffffff;fill-opacity:1;fill-rule:nonzero;stroke:none"
       d="m 1071.52,874.308 c -2.53,-3.861 -7.58,2.163 -4.63,4.488 2.64,2.072 6.39,-1.789 4.63,-4.488" /><path
       inkscape:connector-curvature="0"
       id="path494"
       style="fill:#100f0d;fill-opacity:1;fill-rule:nonzero;stroke:none"
       d="m 1094.79,849.848 c -8.59,-0.816 -19.46,-3.983 -24.06,4.709 1,-1.894 -0.71,-5.925 0.95,-8.714 1.59,-2.691 4.6,-4.821 7.57,-5.712 7.89,-2.367 12.37,4.771 16.07,10.782 l -0.53,-1.065" /><path
       inkscape:connector-curvature="0"
       id="path496"
       style="fill:#71c831;fill-opacity:1;fill-rule:nonzero;stroke:none"
       d="m 353.619,961.873 c -0.178,-0.195 -0.357,-0.391 -0.535,-0.587 -5.602,-6.135 -14.02,-1.591 -15.382,4.612 0.167,1.294 0.351,2.586 0.572,3.875 5.115,-2.634 10.23,-5.266 15.345,-7.9" /><path
       inkscape:connector-curvature="0"
       id="path498"
       style="fill:#5dad33;fill-opacity:1;fill-rule:nonzero;stroke:none"
       d="m 375.998,766.867 c -19.728,-13.825 -32.843,36.584 -4.968,34.996 4.96,-0.282 8.181,-3.756 10.476,-7.77 4.432,-7.755 2.464,-21.638 -5.508,-27.226" /><path
       inkscape:connector-curvature="0"
       id="path500"
       style="fill:#f8dc05;fill-opacity:1;fill-rule:nonzero;stroke:none"
       d="m 363.474,792.207 c 0.002,0 0.004,-10e-4 0.006,-10e-4 0.947,-1.957 -5.574,1.177 -0.006,10e-4" /><path
       inkscape:connector-curvature="0"
       id="path502"
       style="fill:#71c831;fill-opacity:1;fill-rule:nonzero;stroke:none"
       d="m 364.368,791.987 c 1.273,-0.337 2.437,-0.801 3.585,-1.533 9.648,-6.153 1.595,-22.129 -8.113,-15.938 0.348,0.003 0.696,0.005 1.044,0.008 -1.571,-0.067 -3.059,0.254 -4.463,0.962 -1.612,0.967 -3.103,1.995 -4.522,3.23 -0.135,0.118 -0.263,0.244 -0.396,0.365 6.791,1.602 12.141,6.818 12.865,12.906" /><path
       inkscape:connector-curvature="0"
       id="path504"
       style="fill:#71c831;fill-opacity:1;fill-rule:nonzero;stroke:none"
       d="m 353.084,961.286 c 0.178,0.196 0.357,0.392 0.535,0.587 -5.115,2.634 -10.23,5.266 -15.345,7.9 -0.221,-1.289 -0.405,-2.581 -0.572,-3.875 -0.528,2.407 0.004,5.063 2.177,7.443 0.178,0.196 0.357,0.391 0.535,0.587 6.172,6.76 16.819,0.704 15.346,-7.899 -1.332,-7.782 -1.524,-15.724 -1.582,-23.681 -4.751,-2.455 -10.855,-2.74 -15.987,-2.974 -0.599,0.058 -1.161,0.155 -1.705,0.274 0.08,8.779 0.092,17.559 1.216,26.25 1.362,-6.203 9.78,-10.747 15.382,-4.612" /><g
       id="g506"
       transform="scale(0.1,0.1)"><g
         clip-path="url(#clipPath510)"
         id="g508"><path
           inkscape:connector-curvature="0"
           id="path514"
           style="fill:#f8dc05;fill-opacity:1;fill-rule:nonzero;stroke:none"
           d="m 3541.78,9423.48 c -0.5,-68.85 -0.01,-137.82 -4.98,-205.97 -11.65,-159.49 -25.84,-319.18 -35.02,-478.94 -9.19,-160.06 -9.59,-321.6 22.26,-479.15 15.59,-77.11 30.57,-155.29 53.88,-230.48 10.87,-35.07 25.22,-70.27 50.09,-97.66 3.55,-3.91 5.66,-6.9 6.79,-9.22 -0.02,0 -0.04,0.01 -0.06,0.01 -55.68,11.76 9.53,-19.58 0.06,-0.01 3.05,-0.65 5.97,-1.42 8.88,-2.19 -7.24,-60.88 -60.74,-113.04 -128.65,-129.06 -27.12,24.66 -48.92,55.04 -66.44,86.88 -44.95,81.73 -62.04,173.91 -81.65,263.96 -18.43,84.6 -36.16,169.08 -43.05,255.46 -7.16,89.72 -3.1,178.16 -2.85,267.86 0.25,86.36 9.81,172.73 17.73,258.63 8.23,89.22 7.97,178.5 17.3,267.62 7.14,68.12 8.17,136.68 8.79,205.26 5.44,-1.19 11.06,-2.16 17.05,-2.74 51.32,2.34 112.36,5.19 159.87,29.74" /><path
           inkscape:connector-curvature="0"
           id="path516"
           style="fill:#f68118;fill-opacity:1;fill-rule:nonzero;stroke:none"
           d="m 3464.95,7893.5 c -0.45,0.12 -0.9,0.23 -1.35,0.35 -7.37,-1.31 -14.75,-2.61 -22.12,-3.92 22.83,11.83 46.35,20.5 68.25,34.36 21.04,13.32 67.19,49.76 68.84,77.81 2.22,38 61.78,41.09 59.53,2.71 -2.92,-49.83 -38.05,-85.18 -75.69,-115.21 -23.73,-18.93 -91.75,-71.54 -124.51,-49.23 -31.37,21.37 -4.61,74.7 27.05,53.13 l 0,0" /><path
           inkscape:connector-curvature="0"
           id="path518"
           style="fill:#f68118;fill-opacity:1;fill-rule:nonzero;stroke:none"
           d="m 3609.16,8078.02 c -56.39,-61.18 -147.47,-100.42 -229.87,-109.2 -38.29,-4.08 -40.78,55.48 -2.71,59.53 66.12,7.05 143.65,41.13 188.56,89.85 26.04,28.26 70.07,-11.91 44.02,-40.18 l 0,0" /><path
           inkscape:connector-curvature="0"
           id="path520"
           style="fill:#f68118;fill-opacity:1;fill-rule:nonzero;stroke:none"
           d="m 3579.48,8204.64 c -38.43,-41.87 -85.77,-71.39 -142.56,-81.23 -50.04,-8.67 -107.71,-9.77 -130.09,32.99 15.75,-1.41 31.49,-2.81 47.23,-4.21 -1.33,-1.47 -2.67,-2.94 -4.01,-4.41 -25.92,-28.38 -69.93,11.8 -44.02,40.19 1.34,1.46 2.68,2.93 4.02,4.4 12.27,13.44 38.12,13.2 47.23,-4.21 4.85,-9.27 7.71,-16.66 9.33,-26.97 -3.23,6.89 -6.45,13.77 -9.68,20.66 20.86,-14.52 74.44,0.37 95.26,6.63 34.01,10.24 59.8,30.77 83.28,56.34 25.99,28.3 70.01,-11.87 44.01,-40.18 l 0,0" /><path
           inkscape:connector-curvature="0"
           id="path522"
           style="fill:#f68118;fill-opacity:1;fill-rule:nonzero;stroke:none"
           d="m 3552.49,8334.18 c -3.54,-3.24 -13.46,-17.16 -10.72,-7.76 -1.31,7.38 -2.62,14.75 -3.92,22.12 0.72,-1.47 1.44,-2.94 2.17,-4.41 7.31,-14.83 5.28,-31.4 -9.34,-41.1 -29.28,-19.43 -62.39,-35.13 -97.76,-39.93 -25.06,-3.4 -50.06,-5.69 -75.04,-9.33 -17.37,-2.52 -32.8,-2.5 -48.73,5.42 -19.02,9.46 -19.37,31.27 -8.49,46.65 1.16,1.64 2.31,3.27 3.47,4.91 -2.59,-7.15 -5.17,-14.3 -7.76,-21.45 0.06,2.64 0.11,5.28 0.17,7.92 0.8,38.25 60.35,41.21 59.53,2.71 -0.3,-14.6 -2.99,-22.39 -11.39,-34.27 -2.83,15.55 -5.66,31.1 -8.49,46.66 7.73,-3.85 20.7,1.81 28.14,4.19 15.58,5 35.73,2.79 52.02,4.25 30.32,2.72 57.72,16.22 82.56,32.71 -3.11,-13.7 -6.22,-27.4 -9.34,-41.1 -13.07,26.54 -1.04,43.75 18.91,62 28.12,25.72 72.38,-14.24 44.01,-40.19 l 0,0" /><path
           inkscape:connector-curvature="0"
           id="path524"
           style="fill:#f68118;fill-opacity:1;fill-rule:nonzero;stroke:none"
           d="m 3530.87,8438.37 c -48.73,-7.85 -96.16,-22.82 -145.42,-29.16 -22.67,-2.91 -47.01,4.46 -69.24,-0.74 -18.19,-4.25 -29.95,-8.17 -47.64,0.74 -26.74,13.48 -17.58,54.98 12.17,56.34 2.8,0.13 5.61,0.25 8.41,0.38 38.43,1.75 41.14,-57.79 2.72,-59.54 -2.81,-0.13 -5.62,-0.25 -8.42,-0.38 4.05,18.78 8.11,37.55 12.16,56.33 -7.26,3.66 24.18,6.68 29.79,6.82 23,0.59 45.13,-1.98 68.13,0.98 45.6,5.87 89.41,20.48 134.64,27.77 37.93,6.11 40.22,-53.5 2.7,-59.54 l 0,0" /><path
           inkscape:connector-curvature="0"
           id="path526"
           style="fill:#f68118;fill-opacity:1;fill-rule:nonzero;stroke:none"
           d="m 3518.28,8576.68 c -1.45,0.98 -2.9,1.97 -4.35,2.96 9.8,0.45 19.6,0.89 29.4,1.34 -16.94,-13.96 -40.26,-4.65 -60.24,-5.59 -26.46,-1.25 -52,-6.59 -78.5,-7.75 -31.41,-1.38 -62.82,-2.22 -94.27,-2.01 -19.81,0.14 -36.41,-1.33 -51.59,12.52 -28.38,25.91 11.8,69.93 40.19,44.02 1.46,-1.34 2.93,-2.68 4.4,-4.02 -7.15,2.58 -14.3,5.17 -21.45,7.76 44.63,-1.63 89.17,-0.09 133.77,1.87 18.05,0.79 35.8,5.04 53.81,6.51 4.24,0.35 42.89,-2.23 42.12,-2.86 7.01,5.77 21.9,6.45 29.4,1.34 1.46,-0.99 2.91,-1.98 4.36,-2.97 31.37,-21.37 4.61,-74.69 -27.05,-53.12 l 0,0" /><path
           inkscape:connector-curvature="0"
           id="path528"
           style="fill:#f68118;fill-opacity:1;fill-rule:nonzero;stroke:none"
           d="m 3500.8,8728.39 c -1.47,1.34 -2.94,2.68 -4.41,4.02 14.04,0.63 28.07,1.27 42.1,1.91 -1.34,-1.47 -2.68,-2.93 -4.01,-4.4 -6.96,-7.62 -18.1,-11.46 -28.25,-9.05 -13.41,3.17 -35.02,-3.1 -48.76,-4.52 -21.78,-2.25 -42.84,0.13 -64.58,0.23 -42.18,0.19 -85.34,-2.58 -127.65,-3.44 -38.38,-0.77 -41.2,57.79 -2.71,59.54 2.81,0.13 5.62,0.26 8.42,0.38 38.43,1.75 41.14,-57.78 2.71,-59.53 -2.8,-0.13 -5.61,-0.26 -8.42,-0.39 -0.9,19.85 -1.8,39.7 -2.71,59.54 45.81,0.93 92.26,3.6 137.98,3.39 21.92,-0.1 42.49,-1.4 64.46,0.87 17.54,1.81 36.44,6.32 53.74,2.21 -9.42,-3.01 -18.84,-6.03 -28.25,-9.05 1.34,1.47 2.68,2.94 4.02,4.4 10.95,12 30.1,12.87 42.1,1.92 1.46,-1.34 2.93,-2.68 4.4,-4.02 28.38,-25.91 -11.8,-69.93 -40.18,-44.01 l 0,0" /><path
           inkscape:connector-curvature="0"
           id="path530"
           style="fill:#f68118;fill-opacity:1;fill-rule:nonzero;stroke:none"
           d="m 3519.54,8872.68 c -1.47,1.33 -2.94,2.68 -4.4,4.01 11.99,-1.07 23.98,-2.14 35.97,-3.21 -35.4,-18.59 -76.93,-6.98 -114.66,-4.43 -23.37,1.59 -47.55,-2.08 -71.21,-1.06 -12.83,0.55 -25.64,1.58 -38.45,2.47 -2.44,0.17 -32.31,-0.45 -24.64,4.34 -32.56,-20.32 -64.43,30.06 -31.77,50.45 13.63,8.5 25.47,10.05 41.02,5.96 22.99,-6.05 51.77,-3.94 75.49,-4.49 22.12,-0.51 43.59,3 65.71,0.48 17.44,-1.98 50.28,-11.92 66.75,-3.27 11.87,6.23 25.59,6.26 35.97,-3.22 1.47,-1.34 2.93,-2.68 4.4,-4.02 28.38,-25.91 -11.8,-69.93 -40.18,-44.01 l 0,0" /><path
           inkscape:connector-curvature="0"
           id="path532"
           style="fill:#f68118;fill-opacity:1;fill-rule:nonzero;stroke:none"
           d="m 3550.16,9034.08 c -41.28,-2.81 -79.13,-7.33 -120.64,-3.87 -22.73,1.9 -45.11,2.93 -67.74,-0.09 -8.08,-1.07 -15.21,-0.42 -23.21,0.36 -5.65,0.54 -19.1,-0.73 -8.63,2.98 -36.23,-12.86 -53.92,44.07 -17.72,56.91 13.08,4.65 25.74,1.28 38.83,-1.6 7.12,-1.57 19.51,2.37 26.75,3.16 11.09,1.22 23.06,-0.82 34.11,-0.93 21.68,-0.2 43.34,-4.27 64.98,-4.32 23.54,-0.04 47.09,5.34 70.56,6.94 38.4,2.61 41.03,-56.93 2.71,-59.54 l 0,0" /><path
           inkscape:connector-curvature="0"
           id="path534"
           style="fill:#f68118;fill-opacity:1;fill-rule:nonzero;stroke:none"
           d="m 3572.54,9191.19 c -14.14,-0.64 -23.63,1.68 -34.27,11.39 11.99,-1.07 23.98,-2.14 35.97,-3.21 -45.65,-23.97 -112.34,-9.81 -161.77,-12.87 -43.52,-2.69 -92.57,-5.57 -133.44,12.08 -35.38,15.29 -8.01,68.28 27.05,53.13 28.92,-12.5 78.24,-10.12 108.7,-4.8 21.98,3.85 46.84,-0.09 69.3,0.25 14.69,0.22 45.05,-4.35 58.4,2.66 11.87,6.23 25.59,6.26 35.97,-3.22 1.46,-1.34 2.93,-2.68 4.4,-4.02 -7.15,2.59 -14.3,5.18 -21.45,7.76 2.81,0.13 5.62,0.26 8.42,0.39 38.43,1.75 41.14,-57.79 2.72,-59.54 l 0,0" /><path
           inkscape:connector-curvature="0"
           id="path536"
           style="fill:#f68118;fill-opacity:1;fill-rule:nonzero;stroke:none"
           d="m 3540.55,9337.69 c -1.47,1.34 -2.93,2.67 -4.4,4.02 11.99,-1.08 23.98,-2.15 35.97,-3.22 -15.03,-9.45 -34.74,-10.95 -52.22,-12.1 -25.7,-1.7 -50.62,-2.83 -76.28,-5.41 -22.58,-2.28 -44.5,4.07 -66.86,0.51 -16.25,-2.58 -42.16,3.49 -58.5,6.74 -37.79,7.55 -25.15,65.8 12.48,58.29 31.26,-6.23 66.41,-6.38 98.23,-7.21 22.47,-0.58 44.67,6.74 67.59,6.08 9.46,-0.26 40.33,1.37 43.8,3.55 11.23,7.06 26.18,5.72 35.97,-3.22 1.47,-1.34 2.94,-2.68 4.4,-4.02 28.39,-25.91 -11.79,-69.93 -40.18,-44.01 l 0,0" /></g></g><path
       inkscape:connector-curvature="0"
       id="path538"
       style="fill:#2e2d2d;fill-opacity:1;fill-rule:nonzero;stroke:none"
       d="m 540.293,911.45 c 5.177,-2.675 8.92,3.936 4.059,6.846 -2.495,1.494 -7.689,0.561 -10.533,1.015 -6.828,1.088 -16.818,2.233 -22.667,6.473 -14.918,10.812 5.698,39.473 16.564,26.33 1.689,-2.042 2.917,-4.427 4.67,-6.357 -4.897,-0.771 -14.625,-7.91 -7.365,-11.663 6.255,-3.234 15.305,-1.064 22.208,-3.339 6.511,-2.146 12.461,-7.328 13.306,-14.322 0.712,-5.897 -4.705,-15.316 -10.183,-17.815 -2.744,-1.251 -5.903,-0.685 -8.591,-1.443 0.007,4.004 -1.137,7.881 -1.006,11.963 l -0.462,2.312" /><path
       inkscape:connector-curvature="0"
       id="path542"
       style="fill:#77c8f0;fill-opacity:1;fill-rule:nonzero;stroke:none"
       d="m 470.946,877.709 c 6.795,1.633 14.119,-3.799 20.807,-1.874 10.854,3.125 -10.735,26.856 -21.629,21.165 -5.065,-2.646 -20.536,-12.681 -15.592,-20.267 3.285,-5.041 12.065,-0.069 16.414,0.976" /><path
       inkscape:connector-curvature="0"
       id="path544"
       style="fill:#5866ba;fill-opacity:1;fill-rule:nonzero;stroke:none"
       d="m 537.056,881.395 c 4.773,11.287 3.906,36.527 -3.316,46.47 -8.786,12.096 -22.202,11.097 -36.046,11.097 -16.593,0 -33.78,1.285 -50.11,0.729 -11.283,-0.383 -23.213,-7.739 -27.237,-18.764 -3.284,-8.998 -8.152,-25.156 -3.971,-33.945 4.476,-9.411 17.042,-15.838 27.217,-13.384 9.459,2.281 15.402,11.724 22.53,17.681 10.635,8.887 16.178,-1.925 25.14,-8.669 11.168,-8.404 38.149,-17.751 46.487,-0.522 l -0.694,-0.693" /><path
       inkscape:connector-curvature="0"
       id="path546"
       style="fill:#77c8f0;fill-opacity:1;fill-rule:nonzero;stroke:none"
       d="m 428.048,885.185 c 6.742,-5.856 13.761,-1.613 19.881,3.146 6.313,4.908 12.86,10.423 20.694,12.459 15.874,4.124 25.007,-13.34 38.367,-18.83 6.679,-2.744 16.934,-5.766 22.576,0.382 6.017,6.557 4.333,17.584 2.866,25.433 -1.645,8.805 -3.664,18.856 -12.168,23.543 -5.313,2.929 -12.327,2.919 -18.234,3.252 -14.83,0.834 -29.673,-0.788 -44.53,-0.131 -12.507,0.553 -24.935,-0.5 -31.205,-13.008 -5.267,-10.508 -8.22,-27.582 1.753,-36.246" /><path
       inkscape:connector-curvature="0"
       id="path548"
       style="fill:#abe4fa;fill-opacity:1;fill-rule:nonzero;stroke:none"
       d="m 425.159,907.288 c 0.234,-3.941 0.284,-7.799 4.161,-7.963 4.437,-0.188 6.284,4.079 7.963,7.398 2.212,4.371 4.178,8.745 7.758,12.151 1.931,1.837 6.975,4.555 7.987,6.885 3.819,8.793 -9.84,6.005 -14.13,4.672 -9.102,-2.827 -14.289,-13.921 -13.739,-23.143" /><path
       inkscape:connector-curvature="0"
       id="path550"
       style="fill:#f68118;fill-opacity:1;fill-rule:nonzero;stroke:none"
       d="m 538.005,898.503 c -0.793,4.07 -1.839,10.08 -0.002,13.983 1.668,3.542 4.264,5.004 5.629,0.351 1.266,-4.318 2.288,-10.788 0.822,-15.282 -2.003,-6.141 -5.389,-4.494 -6.449,0.948" /><path
       inkscape:connector-curvature="0"
       id="path552"
       style="fill:#f68118;fill-opacity:1;fill-rule:nonzero;stroke:none"
       d="m 410.127,901.704 c 0.343,4.132 0.968,10.2 3.797,13.458 2.567,2.956 5.462,3.657 5.513,-1.191 0.045,-4.5 -0.729,-11.005 -3.36,-14.932 -3.596,-5.365 -6.408,-2.86 -5.95,2.665" /><path
       inkscape:connector-curvature="0"
       id="path554"
       style="fill:#5dad33;fill-opacity:1;fill-rule:nonzero;stroke:none"
       d="m 732.852,909.76 c -7.307,-0.345 -26.12,1.701 -30.701,-6.048 -5.266,-8.907 10.09,-16.509 16.274,-18.044 7.805,-1.937 14.183,-5.645 20.727,-10.347 14.685,-10.551 28.534,-21.96 42.515,-33.524 16.454,-13.607 34.278,-28.576 52.404,-39.167 -3.768,15.686 6.876,22.243 18.239,31.13 -3.563,11.078 8.175,21.678 15.14,28.298 -2.259,4.181 -7.433,3.341 -11.307,4.407 -4.868,1.34 -9.712,3.76 -14.473,5.896 -18.488,8.292 -37.754,14.646 -56.811,21.856 -18.226,6.895 -32.099,16.484 -52.007,15.543" /><path
       inkscape:connector-curvature="0"
       id="path556"
       style="fill:#71c831;fill-opacity:1;fill-rule:nonzero;stroke:none"
       d="m 867.039,864.731 c -0.802,1.68 -6.208,2.545 -7.811,3.278 -3.707,1.694 -7.235,4.007 -10.812,5.964 -14.451,7.905 -29.547,15.704 -44.668,21.463 -8.343,3.178 -16.71,6.657 -24.802,10.545 -5.406,2.598 -11.155,5.832 -16.657,8.026 -5.646,2.253 -12.152,2.477 -17.907,4.875 -0.809,0.337 -1.54,0.698 -2.208,1.081 2.092,-4.783 -6.727,-8.028 -5.036,-13.1 0.803,-1.608 3.306,-2.956 5.718,-4.564 -21.77,1.501 -43.606,0.886 -50.876,24.826 -0.419,-2.398 -0.521,-4.959 -0.292,-7.633 0.437,-5.093 2.268,-10.667 5.128,-15.579 2.59,-4.447 6.023,-8.352 10.029,-10.869 3.949,-2.481 7.422,-1.156 11.513,-1.846 4.703,-0.793 9.297,-3.582 13.289,-6.059 19.313,-11.984 35.682,-25.856 53.105,-40.366 11.582,-9.645 23.271,-19.174 34.823,-28.81 3.85,-3.211 11.373,-12.987 16.656,-12.782 -0.12,3.924 -1.768,6.815 -2.786,9.732 -25.918,27.194 -59.36,45.073 -87.178,71.388 -2.412,2.412 -4.824,6.432 -2.412,10.452 2.412,3.216 6.432,2.412 8.844,0 24.923,-17.688 50.65,-27.335 74.769,-45.827 7.773,-6.137 15.132,-11.854 22.708,-17.052 1.629,0.353 2.923,1.037 3.176,2.731 0,-0.002 -2.486,4.084 -2.688,4.822 -0.017,0.061 -0.027,0.121 -0.042,0.181 -14.445,9.532 -27.846,19.006 -43.253,27.81 -5.628,2.412 -10.452,6.432 -15.276,9.647 -13.667,9.648 -28.943,14.472 -39.394,26.532 -2.412,3.215 0.804,5.627 4.019,6.431 4.02,0.804 8.04,0 11.256,-1.608 19.295,-12.863 39.395,-19.295 58.69,-29.747 12.711,-6.355 26.313,-11.819 38.81,-18.506 1.599,1.164 2.5,2.606 1.565,4.564" /><path
       inkscape:connector-curvature="0"
       id="path558"
       style="fill:#f8dc05;fill-opacity:1;fill-rule:nonzero;stroke:none"
       d="m 752.699,894.753 c -2.412,2.412 -6.432,3.216 -8.844,0 -2.412,-4.02 0,-8.04 2.412,-10.452 27.818,-26.315 61.26,-44.194 87.178,-71.388 -1.072,3.07 -1.447,6.168 1.393,10.528 2.315,3.554 5.065,5.834 9.111,7.396 1.732,0.669 4.232,0.605 6.227,1.037 -7.576,5.198 -14.935,10.915 -22.708,17.052 -24.119,18.492 -49.846,28.139 -74.769,45.827" /><path
       inkscape:connector-curvature="0"
       id="path560"
       style="fill:#f8dc05;fill-opacity:1;fill-rule:nonzero;stroke:none"
       d="m 767.974,908.42 c -3.216,1.608 -7.236,2.412 -11.256,1.608 -3.215,-0.804 -6.431,-3.216 -4.019,-6.431 10.451,-12.06 25.727,-16.884 39.394,-26.532 4.824,-3.215 9.648,-7.235 15.276,-9.647 15.407,-8.804 28.808,-18.278 43.253,-27.81 -0.508,2.001 -0.337,3.817 0.177,5.807 1.025,3.975 3.205,7.566 6.297,10.358 1.547,1.398 5.843,2.547 8.378,4.394 -12.497,6.687 -26.099,12.151 -38.81,18.506 -19.295,10.452 -39.395,16.884 -58.69,29.747" /><path
       inkscape:connector-curvature="0"
       id="path562"
       style="fill:#f8dc05;fill-opacity:1;fill-rule:nonzero;stroke:none"
       d="m 746.276,902.46 c 0.104,0.152 0.202,0.311 0.294,0.475 3.373,6 -5.417,19.254 -8.344,24.142 -5.184,8.657 -13.082,18.068 -24.115,17.939 -12.523,-0.148 -20.311,-7.483 -22.131,-17.891 -1.509,-8.635 9.067,-17.586 15.16,-20.262 6.565,-2.884 33.535,-12.621 39.136,-4.403" /><path
       inkscape:connector-curvature="0"
       id="path564"
       style="fill:#458632;fill-opacity:1;fill-rule:nonzero;stroke:none"
       d="m 734.447,917.639 c 1.318,5.467 -8.701,17.315 -12.783,20.477 -3.438,2.663 -9.984,5.372 -14.297,4.066 -24.511,-7.422 23.901,-37.708 27.08,-24.543" /><path
       inkscape:connector-curvature="0"
       id="path566"
       style="fill:#5dad33;fill-opacity:1;fill-rule:nonzero;stroke:none"
       d="m 772.163,959.965 c -6.082,-4.064 -23.256,-12.013 -23.184,-21.014 0.082,-10.347 17.159,-8.941 23.249,-7.067 7.686,2.366 15.063,2.478 23.094,1.824 18.023,-1.466 35.771,-4.099 53.714,-6.795 21.114,-3.174 44.105,-6.806 65.097,-6.532 -11.318,11.496 -5.58,22.604 -0.428,36.077 -8.766,7.653 -4.176,22.789 -1.622,32.053 -4.093,2.416 -8.092,-0.971 -11.961,-2.056 -4.862,-1.362 -10.26,-1.787 -15.441,-2.413 -20.115,-2.429 -39.899,-6.922 -59.944,-10.572 -19.171,-3.492 -36.002,-2.432 -52.574,-13.505" /><path
       inkscape:connector-curvature="0"
       id="path568"
       style="fill:#71c831;fill-opacity:1;fill-rule:nonzero;stroke:none"
       d="m 910.352,990.589 c -1.554,1.025 -6.632,-1.021 -8.383,-1.22 -4.05,-0.46 -8.265,-0.298 -12.34,-0.466 -16.457,-0.68 -33.412,-1.784 -49.337,-4.648 -8.787,-1.58 -17.75,-2.914 -26.688,-3.756 -5.971,-0.563 -12.565,-0.757 -18.411,-1.714 -5.998,-0.982 -11.688,-4.145 -17.856,-5.058 -0.866,-0.129 -1.679,-0.197 -2.449,-0.213 4.259,-3.019 -1.623,-10.347 2.441,-13.821 1.518,-0.963 4.358,-0.827 7.253,-0.961 -19.426,-9.941 -37.816,-21.73 -56.391,-4.968 0.877,-2.27 2.11,-4.518 3.686,-6.69 3.001,-4.138 7.444,-7.969 12.428,-10.703 4.512,-2.474 9.467,-4.05 14.197,-4.14 4.663,-0.089 6.955,2.837 10.816,4.356 4.438,1.746 9.813,1.726 14.51,1.663 22.728,-0.307 43.905,-3.751 66.317,-7.197 14.897,-2.29 29.826,-4.427 44.692,-6.724 4.955,-0.766 16.442,-5.262 20.862,-2.362 -2.126,3.3 -5.029,4.927 -7.407,6.902 -36.229,9.931 -74.101,8.003 -111.506,16.202 -3.31,0.823 -7.45,3.023 -7.456,7.711 0.408,3.999 4.266,5.383 7.577,4.561 30.475,-2.3 57.492,2.702 87.693,-0.702 9.824,-1.249 19.077,-2.353 28.249,-2.899 1.214,1.143 1.969,2.396 1.313,3.978 10e-4,-0.002 -4.237,2.217 -4.79,2.745 -0.046,0.044 -0.085,0.089 -0.13,0.133 -17.291,0.718 -33.659,1.922 -51.399,1.52 -6.066,-0.836 -12.272,0.12 -18.063,0.387 -16.685,1.218 -32.26,-2.527 -47.434,2.415 -3.725,1.511 -2.214,5.236 0.127,7.583 3.029,2.762 6.888,4.147 10.472,4.427 23.166,-1.069 43.703,3.786 65.625,4.782 14.167,1.11 28.639,3.444 42.795,4.16 0.769,1.822 0.797,3.521 -1.013,4.717" /><path
       inkscape:connector-curvature="0"
       id="path570"
       style="fill:#f8dc05;fill-opacity:1;fill-rule:nonzero;stroke:none"
       d="m 796.907,957.343 c -3.311,0.822 -7.169,-0.562 -7.577,-4.561 0.006,-4.688 4.146,-6.888 7.456,-7.711 37.405,-8.199 75.277,-6.271 111.506,-16.202 -2.5,2.077 -4.42,4.538 -4.235,9.738 0.151,4.238 1.33,7.611 3.992,11.036 1.139,1.466 3.314,2.7 4.8,4.099 -9.172,0.546 -18.425,1.65 -28.249,2.899 -30.201,3.404 -57.218,-1.598 -87.693,0.702" /><path
       inkscape:connector-curvature="0"
       id="path572"
       style="fill:#f8dc05;fill-opacity:1;fill-rule:nonzero;stroke:none"
       d="m 802.945,976.93 c -3.584,-0.28 -7.443,-1.665 -10.472,-4.427 -2.341,-2.347 -3.852,-6.072 -0.127,-7.583 15.174,-4.942 30.749,-1.197 47.434,-2.415 5.791,-0.267 11.997,-1.223 18.063,-0.387 17.74,0.402 34.108,-0.802 51.399,-1.52 -1.466,1.452 -2.256,3.097 -2.843,5.066 -1.172,3.935 -1.155,8.135 0.053,12.122 0.606,1.996 3.693,5.196 4.913,8.086 -14.156,-0.716 -28.628,-3.05 -42.795,-4.16 -21.922,-0.996 -42.459,-5.851 -65.625,-4.782" /><path
       inkscape:connector-curvature="0"
       id="path574"
       style="fill:#f8dc05;fill-opacity:1;fill-rule:nonzero;stroke:none"
       d="m 787.429,960.634 c 0.011,0.184 0.013,0.37 0.008,0.559 -0.205,6.879 -14.571,13.702 -19.6,16.38 -8.906,4.743 -20.526,8.734 -29.912,2.932 -10.653,-6.584 -13.543,-16.885 -9.734,-26.741 3.16,-8.176 16.837,-10.39 23.438,-9.541 7.111,0.914 35.239,6.481 35.8,16.411" /><path
       inkscape:connector-curvature="0"
       id="path576"
       style="fill:#458632;fill-opacity:1;fill-rule:nonzero;stroke:none"
       d="m 769.467,967.538 c -1.691,5.364 -16.384,10.347 -21.513,10.951 -4.318,0.508 -11.324,-0.546 -14.346,-3.889 -17.172,-19 39.924,-19.981 35.859,-7.062" /></g></svg>