<?xml version="1.0" encoding="UTF-8" standalone="no"?>
<svg
   xmlns:dc="http://purl.org/dc/elements/1.1/"
   xmlns:cc="http://creativecommons.org/ns#"
   xmlns:rdf="http://www.w3.org/1999/02/22-rdf-syntax-ns#"
   xmlns:svg="http://www.w3.org/2000/svg"
   xmlns="http://www.w3.org/2000/svg"
   version="1.1"
   id="svg9280"
   viewBox="0 0 239.39301 214.46532"
   height="60.526878mm"
   width="67.562027mm">
  <defs
     id="defs9282" />
  <metadata
     id="metadata9285">
    <rdf:RDF>
      <cc:Work
         rdf:about="">
        <dc:format>image/svg+xml</dc:format>
        <dc:type
           rdf:resource="http://purl.org/dc/dcmitype/StillImage" />
        <dc:title></dc:title>
      </cc:Work>
    </rdf:RDF>
  </metadata>
  <g
     transform="translate(-283.16064,-305.12955)"
     id="layer1">
    <path
       id="path4234"
       d="m 480.77032,348.78678 c 0,-3.60351 1.55762,-6.83594 4.0332,-9.1455 0.42968,-0.69825 0.92286,-1.34766 1.47461,-1.94825 -9.47265,-8.72559 -19.24805,-20.05859 -23.65723,-32.56348 -6.54296,1.4502 -0.98632,20.1416 -5.57617,22.67579 -13.02246,2.40723 -28.85254,15.91309 -28.85254,15.91309 0,0 -14.07715,-0.96193 -24.6875,-10.12696 1.92871,32.31933 39.06739,50.61523 40.51758,50.87402 1.0254,0.18066 33.44238,-14.58496 52.17773,-23.17382 -0.76171,0.13183 -1.54296,0.21483 -2.34375,0.21483 -7.22656,0 -13.08593,-5.69823 -13.08593,-12.71972"
       style="fill:#ccb5a3;fill-opacity:1;fill-rule:nonzero;stroke:none" />
    <path
       id="path4236"
       d="m 506.0877,353.26432 c -0.79101,2.0459 -2.1045,3.8379 -3.78418,5.22461 4.24805,-1.95313 6.93848,-3.19336 6.93848,-3.19336 0,0 -1.18165,-0.71289 -3.1543,-2.03125"
       style="fill:#ccb5a3;fill-opacity:1;fill-rule:nonzero;stroke:none" />
    <path
       id="path4238"
       d="m 502.30352,358.48893 c -1.7871,0.8252 -3.83789,1.76757 -6.10352,2.80274 2.29982,-0.40528 4.38965,-1.38673 6.10352,-2.80274"
       style="fill:#ccb5a3;fill-opacity:1;fill-rule:nonzero;stroke:none" />
    <path
       id="path4240"
       d="m 506.0877,353.26432 c -1.12793,-0.75195 -2.5293,-1.71387 -4.1211,-2.84668 -5.5664,-1.08886 -12.02147,-1.84082 -18.72558,-1.5625 -0.19532,-0.86914 -0.30273,-1.76757 -0.30273,-2.69531 0,-2.38281 0.68848,-4.60938 1.86523,-6.51855 -2.47558,2.30956 -4.0332,5.54199 -4.0332,9.1455 0,7.02149 5.85937,12.71972 13.08593,12.71972 0.80079,0 1.58204,-0.083 2.34375,-0.21483 2.26563,-1.03517 4.31642,-1.97754 6.10352,-2.80274 1.67968,-1.38671 2.99317,-3.17871 3.78418,-5.22461"
       style="fill:#ccb5a3;fill-opacity:1;fill-rule:nonzero;stroke:none" />
    <path
       id="path4242"
       d="m 486.73712,338.12272 c -0.15625,-0.1416 -0.30762,-0.28809 -0.45899,-0.42969 -0.55175,0.60059 -1.04493,1.25 -1.47461,1.94825 0.59571,-0.56153 1.23536,-1.0791 1.9336,-1.51856"
       style="fill:#ccb5a3;fill-opacity:1;fill-rule:nonzero;stroke:none" />
    <path
       id="path4244"
       d="m 484.80352,339.64128 c -1.17675,1.90917 -1.86523,4.13574 -1.86523,6.51855 0,0.92774 0.10738,1.82617 0.30273,2.69531 6.70411,-0.27832 13.15918,0.47364 18.72558,1.5625 -4.14062,-2.96386 -9.60937,-7.1582 -15.22948,-12.29492 -0.69824,0.43946 -1.33789,0.95703 -1.9336,1.51856"
       style="fill:#ccb5a3;fill-opacity:1;fill-rule:nonzero;stroke:none" />
    <path
       id="path4246"
       d="m 317.13263,464.75358 c 2.70019,2.09472 5.72754,3.75489 8.9746,4.7998 2.00196,1.59669 4.41895,3.3838 6.25,4.35547 0.3418,0.18067 0.63965,0.34668 0.92774,0.50782 2.0166,2.55371 4.26757,4.86816 6.89453,6.83593 -2.64161,7.24609 -4.99023,26.1084 -0.6543,28.51563 8.18848,4.5459 -16.88476,5.69336 -15.90332,0.70801 -1.71875,-3.54981 -7.97851,-19.29687 -7.79296,-32.21192 0.0489,-3.208 0.52733,-8.01758 1.30371,-13.51074"
       style="fill:#998a75;fill-opacity:1;fill-rule:nonzero;stroke:none" />
    <path
       id="path4248"
       d="m 411.75177,463.069 c 2.70507,2.09474 5.72753,3.75 8.97948,4.79982 2.00195,1.5918 4.41895,3.38378 6.24513,4.35058 0.34667,0.18067 0.64452,0.34668 0.92772,0.50782 2.0166,2.55371 4.27247,4.87303 6.89942,6.83593 -2.6416,7.24609 -4.99023,26.1084 -0.65918,28.51563 8.18848,4.55077 -16.88476,5.69335 -15.89844,0.708 -1.71875,-3.55469 -7.97851,-19.29688 -7.79296,-32.21191 0.0439,-3.208 0.52734,-8.01269 1.29883,-13.50587"
       style="fill:#998a75;fill-opacity:1;fill-rule:nonzero;stroke:none" />
    <path
       id="path4250"
       d="m 322.94805,401.3649 c -0.96191,0 -15.19531,-13.02733 -9.4043,-42.5 -34.73143,17.65625 -16.6455,52.62697 -16.6455,52.62697 l 26.0498,-10.12697"
       style="fill:#ccb5a3;fill-opacity:1;fill-rule:nonzero;stroke:none" />
    <path
       id="path4252"
       d="m 283.16289,473.54753 c 0.28321,-19.5752 4.84864,-38.81348 9.75099,-57.66603 1.85057,-7.13378 4.82421,-14.14062 12.5,-16.14745 6.42089,-1.68457 13.208,-1.07911 19.76074,-1.08398 18.66211,-0.01 37.29492,1.71386 55.9668,1.31836 5.23437,-0.10738 10.46386,-0.41016 15.66406,-1.01075 5.52246,-0.64453 13.94042,-1.53809 17.4707,-6.55274 11.41601,-16.24022 17.36327,-25.04882 17.36327,-25.04882 l 56.91895,26.68945 c 0,0 0.56153,34.8877 -2.57323,45.3418 -3.13478,10.4541 -15.83985,19.98535 -21.54298,31.86035 -5.71289,11.875 3.93555,35.99121 12.13868,43.22753 8.19823,7.23634 -24.43848,6.35255 -24.04298,0.16114 0.23438,-3.59864 -4.6875,-8.14452 -6.74316,-10.58105 -6.15234,-7.29004 -14.77539,-20.75684 -25.41504,-20.81055 -2.5,-0.0146 -4.49706,-1.43555 -6.80664,-2.13867 -2.5293,-0.7666 -4.48242,-0.11713 -7.00683,0.3125 -2.53418,0.43457 -5.06837,0.84472 -7.60743,1.21582 -4.90234,0.71778 -9.82421,1.30859 -14.75585,1.75293 -13.57911,1.21093 -27.31934,1.33788 -40.87402,-0.2832 -4.14552,-0.49805 -8.20802,-1.38184 -12.23634,-2.46583 -3.16406,-0.8496 -6.14745,-2.61719 -9.44335,-2.91504 -1.17188,-0.10737 -9.02344,1.77735 -9.04785,2.33399 -0.30763,6.38184 0.75682,12.5 2.62695,18.59864 1.21094,3.94042 2.9248,10.67382 6.91406,12.89062 10.13671,5.63477 -20.90332,7.04589 -19.68262,0.87402 -2.1289,-4.39453 -19.52637,-23.88183 -19.29688,-39.87304"
       style="fill:#ccb5a3;fill-opacity:1;fill-rule:nonzero;stroke:none" />
    <path
       id="path4254"
       d="m 433.66583,401.67253 c -3.47656,-2.53419 -12.11914,-10.75196 -17.06055,-15.80079 -4.94629,-5.05859 8.07617,-16.4209 10.80079,-12.90527 -0.625,1.73828 -2.85645,5.06347 -2.85645,5.06347 27.72948,28.11036 60.83007,24.17481 64.76073,23.0713 3.93555,-1.11817 7.5586,9.458 1.72364,11.20116 -5.83496,1.73829 -27.56836,11.12305 -57.36816,-10.62987"
       style="fill:#306647;fill-opacity:1;fill-rule:nonzero;stroke:none" />
    <path
       id="path4256"
       d="m 518.94903,355.88639 c -2.28028,-2.64649 -8.20801,-3.38867 -11.17676,-4.15527 -2.12402,4.22851 -6.57714,7.15332 -11.74804,7.15332 -6.27441,0 -11.51368,-4.29687 -12.78321,-10.0293 -8.06152,0.33691 -16.45995,2.15333 -24.0332,6.68458 -9.89258,5.91796 -17.29493,14.57031 -21.14258,25.38573 -1.84082,5.18067 -3.11524,11.89942 -0.91309,17.14355 3.6377,8.6377 15.70802,9.51173 23.67188,10.3418 14.64355,1.5332 30.62011,-3.02246 41.69922,-12.87597 3.74512,-3.33008 7.16797,-7.03614 10.05859,-11.13281 4.49708,-6.37695 11.24024,-20.00489 6.85059,-27.83203 -0.13673,-0.24415 -0.29785,-0.46875 -0.4834,-0.6836"
       style="fill:#ccb5a3;fill-opacity:1;fill-rule:nonzero;stroke:none" />
    <path
       id="path4258"
       d="m 496.02423,358.88444 c 5.1709,0 9.62402,-2.92481 11.74804,-7.15332 -6.58692,-1.71387 -15.33203,-3.26172 -24.53125,-2.87598 1.26953,5.73243 6.5088,10.0293 12.78321,10.0293"
       style="fill:#ccb5a3;fill-opacity:1;fill-rule:nonzero;stroke:none" />
    <path
       id="path4260"
       d="m 521.49298,351.111 c -4.90723,-0.29785 -20.33204,4.59962 -19.82423,6.99219 0.50294,2.39258 13.00294,7.18261 15.60059,6.23535 2.59766,-0.94726 7.42676,-13.52051 4.22364,-13.22754"
       style="fill:#472823;fill-opacity:1;fill-rule:nonzero;stroke:none" />
    <path
       id="path4262"
       d="m 494.51055,341.58463 c -2.31933,1.02051 -3.30566,3.89649 -2.20215,6.4209 1.1084,2.52441 3.8916,3.74512 6.20605,2.73437 2.32912,-1.02538 3.31055,-3.89647 2.20215,-6.4209 -1.10351,-2.52441 -3.88183,-3.75 -6.20605,-2.73437"
       style="fill:#261717;fill-opacity:1;fill-rule:nonzero;stroke:none" />
    <path
       id="path4264"
       d="m 501.5711,396.03288 0.0928,0 -0.0146,-1.92871 c -0.18066,0.0293 -16.65528,0.0195 -19.99024,-7.89552 l -1.77735,0.75197 c 3.73048,8.85741 20.13673,9.07226 21.68946,9.07226"
       style="fill:#472823;fill-opacity:1;fill-rule:nonzero;stroke:none" />
    <path
       id="path4266"
       d="m 441.21465,360.47624 c 0,7.02148 5.85938,12.71973 13.08594,12.71973 7.22656,0 13.08105,-5.69825 13.08105,-12.71973 0,-7.03125 -5.85449,-12.72461 -13.08105,-12.72461 -7.22656,0 -13.08594,5.69336 -13.08594,12.72461"
       style="fill:#ccb5a3;fill-opacity:1;fill-rule:nonzero;stroke:none" />
    <path
       id="path4268"
       d="m 452.78692,355.89615 c -2.31934,1.02052 -3.30567,3.8916 -2.19727,6.4209 1.10352,2.52442 3.88673,3.74513 6.20605,2.7295 2.32423,-1.02051 3.31055,-3.89161 2.20215,-6.41602 -1.1084,-2.52441 -3.88671,-3.75 -6.21093,-2.73438"
       style="fill:#261717;fill-opacity:1;fill-rule:nonzero;stroke:none" />
  </g>
</svg>
