<?xml version="1.0" encoding="UTF-8" standalone="no"?>
<svg
   xmlns:dc="http://purl.org/dc/elements/1.1/"
   xmlns:cc="http://creativecommons.org/ns#"
   xmlns:rdf="http://www.w3.org/1999/02/22-rdf-syntax-ns#"
   xmlns:svg="http://www.w3.org/2000/svg"
   xmlns="http://www.w3.org/2000/svg"
   version="1.1"
   id="svg5499"
   viewBox="0 0 213.16758 167.13207"
   height="47.168385mm"
   width="60.160629mm">
  <defs
     id="defs5501" />
  <metadata
     id="metadata5504">
    <rdf:RDF>
      <cc:Work
         rdf:about="">
        <dc:format>image/svg+xml</dc:format>
        <dc:type
           rdf:resource="http://purl.org/dc/dcmitype/StillImage" />
        <dc:title></dc:title>
      </cc:Work>
    </rdf:RDF>
  </metadata>
  <g
     transform="translate(-244.84478,-405.93903)"
     id="layer1">
    <path
       id="path4362"
       d="m 455.51212,478.33523 c -5.66406,-4.64355 -17.28028,-2.93945 -23.53028,0.0195 -3.04687,1.44531 -4.4873,3.97461 -2.46582,6.26954 0.90332,1.03515 2.54884,1.8164 4.34571,2.14355 0.31738,0.45898 0.73241,0.88867 1.27441,1.25488 0.15625,0.37598 0.35644,0.73243 0.62988,1.0498 1.63086,1.85059 4.7168,2.53419 7.76367,2.1045 4.15528,-0.58593 9.18458,-1.6211 11.92383,-3.95508 3.30567,-2.82227 3.4961,-6.06933 0.0586,-8.88672"
       style="fill:#542b1e;fill-opacity:1;fill-rule:nonzero;stroke:none" />
    <path
       id="path4364"
       d="m 298.46133,506.98269 c 0,0 4.16993,47.27539 -0.64941,52.73925 -4.8291,5.46875 19.30176,5.46875 19.30176,2.25099 0,-3.21778 0,-50.81055 0,-50.81055 l -18.65235,-4.17969"
       style="fill:#422319;fill-opacity:1;fill-rule:nonzero;stroke:none" />
    <path
       id="path4366"
       d="m 395.28751,506.91922 c 0,0 4.16992,47.59277 -0.6543,53.05663 -4.82422,5.46387 19.30665,5.14649 19.30665,1.93359 0,-3.21776 0,-50.81542 0,-50.81542 l -18.65235,-4.1748"
       style="fill:#422319;fill-opacity:1;fill-rule:nonzero;stroke:none" />
    <path
       id="path4368"
       d="m 448.46622,507.9446 c -1.60645,-8.98437 -5.36621,-18.50097 -11.88965,-25.06347 -7.85156,-7.89551 -17.14355,-9.81445 -27.93945,-10.12208 -13.65723,-0.3955 -27.32423,-0.88378 -40.97168,-1.5039 l 0,0.1025 c -12.04102,-2.30957 -20.32227,-5.9668 -20.78125,-11.96288 -1.66505,-21.78712 -19.3213,-46.95313 -30.41505,-50.48829 -11.09375,-3.54004 -15.19531,-4.90722 -22.1875,1.60645 -17.84667,21.7041 -45.66406,20.58105 -45.66406,20.58105 0,0 -1.29882,33.64257 35.62013,33.90625 7.37305,47.16797 24.70215,61.71875 27.08496,67.3877 2.57324,6.1084 6.59667,29.42382 1.77246,35.85937 -4.82422,6.43067 20.09765,6.26953 20.74219,0.4834 0.64452,-5.79102 3.208,-20.47852 4.17969,-26.69433 -0.01,-0.26857 20.37108,-2.79298 21.96776,-3.02247 11.54297,-1.65527 23.03224,-4.2627 34.11621,-7.90527 12.45118,-4.0918 27.01173,-7.06543 32.46094,8.4668 2.51465,7.17772 2.65625,19.21875 -2.7832,25.38574 -4.82421,5.46875 21.86524,4.82422 22.50976,0 0.64454,-4.82422 3.61329,-48.96973 2.17774,-57.0166"
       style="fill:#6e3826;fill-opacity:1;fill-rule:nonzero;stroke:none" />
    <path
       id="path4370"
       d="m 288.42716,427.52468 -0.2832,0 c -4.02833,0 -4.02833,6.25 0,6.25 l 0.2832,0 c 4.02832,0 4.02832,-6.25 0,-6.25"
       style="fill:#110f11;fill-opacity:1;fill-rule:nonzero;stroke:none" />
    <path
       id="path4372"
       d="m 306.42032,483.13503 c -3.82813,0.42969 -14.5166,0.23437 -20.84473,-0.11225 -6.33301,-0.34668 -4.60448,-15.74708 -0.67871,-15.07324 0.64454,1.52831 1.18164,5.07813 1.18164,5.07813 35.35156,1.7871 56.71875,-23.47657 58.64746,-26.58693 1.92384,-3.12011 9.8291,3.23243 7.02638,7.91505 -2.80274,4.6875 -12.46094,25.10741 -45.33204,28.77929"
       style="fill:#306647;fill-opacity:1;fill-rule:nonzero;stroke:none" />
    <path
       id="path4374"
       d="m 302.43594,414.87332 c -3.8916,-8.30078 17.78809,-8.94532 20.75195,2.57812 2.96388,11.52833 6.66993,42.06055 -8.79393,47.40723 -15.10743,3.28125 -8.06642,-41.68945 -11.95802,-49.98535"
       style="fill:#2e1c17;fill-opacity:1;fill-rule:nonzero;stroke:none" />
    <path
       id="path4376"
       d="m 262.43107,446.81179 c -1.167,1.68945 -2.7002,3.00293 -4.51661,3.85743 l -0.0781,-0.32715 c -1.54296,-3.37892 -3.72557,-7.23145 -4.18945,-10.98145 6.64063,-2.02637 5.92285,-13.4375 -2.15331,-13.4375 -8.76465,0 -8.86231,13.42285 -0.30274,13.73535 0.57618,4.1211 2.7832,8.2129 4.4873,11.94825 l 0.1025,0.13671 c -0.57129,0.84472 0.0732,2.30469 1.3086,1.92382 3.12988,-0.96678 5.64453,-2.90526 7.5,-5.59081 0.91796,-1.33301 -1.25,-2.57812 -2.1582,-1.26465"
       style="fill:#170f14;fill-opacity:1;fill-rule:nonzero;stroke:none" />
  </g>
</svg>
