<?xml version="1.0" encoding="UTF-8" standalone="no"?>
<svg
   xmlns:dc="http://purl.org/dc/elements/1.1/"
   xmlns:cc="http://creativecommons.org/ns#"
   xmlns:rdf="http://www.w3.org/1999/02/22-rdf-syntax-ns#"
   xmlns:svg="http://www.w3.org/2000/svg"
   xmlns="http://www.w3.org/2000/svg"
   version="1.1"
   id="svg437241"
   viewBox="0 0 191.00875 212.92136"
   height="60.091141mm"
   width="53.906914mm">
  <defs
     id="defs437243">
    <clipPath
       clipPathUnits="userSpaceOnUse"
       id="clipPath423469">
      <path
         d="m 3197.25,872.02 1374.36,0 0,1558.82 -1374.36,0 0,-1558.82 z"
         id="path423471" />
    </clipPath>
  </defs>
  <metadata
     id="metadata437246">
    <rdf:RDF>
      <cc:Work
         rdf:about="">
        <dc:format>image/svg+xml</dc:format>
        <dc:type
           rdf:resource="http://purl.org/dc/dcmitype/StillImage" />
        <dc:title></dc:title>
      </cc:Work>
    </rdf:RDF>
  </metadata>
  <g
     transform="translate(358.36152,-8.7586626)"
     id="layer1">
    <path
       d="m -348.75777,221.68003 171.795,0 0,-194.852497 -171.795,0 0,194.852497 z"
       style="fill:#e1c9c4;fill-opacity:1;fill-rule:nonzero;stroke:none"
       id="path423431" />
    <path
       d="m -332.58277,66.190033 27.7275,0 0,-14.05375 -27.7275,0 0,14.05375 z"
       style="fill:#3c4548;fill-opacity:1;fill-rule:nonzero;stroke:none"
       id="path423433" />
    <path
       d="m -295.34402,66.190033 27.73,0 0,-14.05375 -27.73,0 0,14.05375 z"
       style="fill:#3c4548;fill-opacity:1;fill-rule:nonzero;stroke:none"
       id="path423435" />
    <path
       d="m -258.10277,66.190033 27.7275,0 0,-14.05375 -27.7275,0 0,14.05375 z"
       style="fill:#3c4548;fill-opacity:1;fill-rule:nonzero;stroke:none"
       id="path423437" />
    <path
       d="m -220.86152,66.190033 27.7275,0 0,-14.05375 -27.7275,0 0,14.05375 z"
       style="fill:#3c4548;fill-opacity:1;fill-rule:nonzero;stroke:none"
       id="path423439" />
    <path
       d="m -332.58277,108.34503 27.7275,0 0,-14.051247 -27.7275,0 0,14.051247 z"
       style="fill:#3c4548;fill-opacity:1;fill-rule:nonzero;stroke:none"
       id="path423441" />
    <path
       d="m -295.34402,108.34503 27.73,0 0,-14.051247 -27.73,0 0,14.051247 z"
       style="fill:#3c4548;fill-opacity:1;fill-rule:nonzero;stroke:none"
       id="path423443" />
    <path
       d="m -258.10277,108.34503 27.7275,0 0,-14.051247 -27.7275,0 0,14.051247 z"
       style="fill:#3c4548;fill-opacity:1;fill-rule:nonzero;stroke:none"
       id="path423445" />
    <path
       d="m -220.86152,108.34503 27.7275,0 0,-14.051247 -27.7275,0 0,14.051247 z"
       style="fill:#3c4548;fill-opacity:1;fill-rule:nonzero;stroke:none"
       id="path423447" />
    <path
       d="m -332.58277,150.50003 27.7275,0 0,-14.05225 -27.7275,0 0,14.05225 z"
       style="fill:#3c4548;fill-opacity:1;fill-rule:nonzero;stroke:none"
       id="path423449" />
    <path
       d="m -295.34402,150.50003 27.73,0 0,-14.05225 -27.73,0 0,14.05225 z"
       style="fill:#3c4548;fill-opacity:1;fill-rule:nonzero;stroke:none"
       id="path423451" />
    <path
       d="m -258.10277,150.50003 27.7275,0 0,-14.05225 -27.7275,0 0,14.05225 z"
       style="fill:#3c4548;fill-opacity:1;fill-rule:nonzero;stroke:none"
       id="path423453" />
    <path
       d="m -220.86152,150.50003 27.7275,0 0,-14.05225 -27.7275,0 0,14.05225 z"
       style="fill:#3c4548;fill-opacity:1;fill-rule:nonzero;stroke:none"
       id="path423455" />
    <path
       d="m -316.45027,31.668783 107.17975,0 0,-22.9101204 -107.17975,0 0,22.9101204 z"
       style="fill:#e1c9c4;fill-opacity:1;fill-rule:nonzero;stroke:none"
       id="path423457" />
    <path
       d="m -332.58277,221.68003 39.96625,0 0,-44.5215 -39.96625,0 0,44.5215 z"
       style="fill:#3c4548;fill-opacity:1;fill-rule:nonzero;stroke:none"
       id="path423459" />
    <path
       d="m -282.84402,221.68003 39.96875,0 0,-44.5215 -39.96875,0 0,44.5215 z"
       style="fill:#3c4548;fill-opacity:1;fill-rule:nonzero;stroke:none"
       id="path423461" />
    <path
       d="m -233.10027,221.68003 39.96625,0 0,-44.5215 -39.96625,0 0,44.5215 z"
       style="fill:#3c4548;fill-opacity:1;fill-rule:nonzero;stroke:none"
       id="path423463" />
    <g
       transform="matrix(0.125,0,0,-0.125,-748.41402,330.68253)"
       id="g423465">
      <g
         id="g423467"
         clip-path="url(#clipPath423469)">
        <path
           d="m 3120.42,1573.03 1528.07,0 0,178.97 -1528.07,0 0,-178.97 z m 0,332.43 1528.07,0 0,178.96 -1528.07,0 0,-178.96 z m 0,511.41 0,-178.97 1528.07,0 0,178.97 -1528.07,0"
           style="fill:#c19893;fill-opacity:1;fill-rule:nonzero;stroke:none"
           id="path423473" />
      </g>
    </g>
    <path
       d="m -358.36152,49.198783 191.00875,0 0,-22.37113 -191.00875,0 0,22.37113 z"
       style="fill:#e1c9c4;fill-opacity:1;fill-rule:nonzero;stroke:none"
       id="path423475" />
    <path
       d="m -358.36152,90.755033 191.00875,0 0,-22.3735 -191.00875,0 0,22.3735 z"
       style="fill:#e1c9c4;fill-opacity:1;fill-rule:nonzero;stroke:none"
       id="path423477" />
    <path
       d="m -358.36152,132.30878 191.00875,0 0,-22.374 -191.00875,0 0,22.374 z"
       style="fill:#e1c9c4;fill-opacity:1;fill-rule:nonzero;stroke:none"
       id="path423479" />
    <path
       d="m -332.58277,160.49253 139.44875,0 0,-1.15625 -139.44875,0 0,1.15625 z"
       style="fill:#c19893;fill-opacity:1;fill-rule:nonzero;stroke:none"
       id="path423481" />
    <path
       d="m -332.58277,165.02878 139.44875,0 0,-1.15625 -139.44875,0 0,1.15625 z"
       style="fill:#c19893;fill-opacity:1;fill-rule:nonzero;stroke:none"
       id="path423483" />
    <path
       d="m -332.58277,169.56503 139.44875,0 0,-1.15625 -139.44875,0 0,1.15625 z"
       style="fill:#c19893;fill-opacity:1;fill-rule:nonzero;stroke:none"
       id="path423485" />
  </g>
</svg>
