<?xml version="1.0" encoding="UTF-8" standalone="no"?>
<svg
   xmlns:dc="http://purl.org/dc/elements/1.1/"
   xmlns:cc="http://creativecommons.org/ns#"
   xmlns:rdf="http://www.w3.org/1999/02/22-rdf-syntax-ns#"
   xmlns:svg="http://www.w3.org/2000/svg"
   xmlns="http://www.w3.org/2000/svg"
   version="1.1"
   id="svg6117"
   viewBox="0 0 235.6123 201.0094"
   height="56.729321mm"
   width="66.495026mm">
  <defs
     id="defs6119" />
  <metadata
     id="metadata6122">
    <rdf:RDF>
      <cc:Work
         rdf:about="">
        <dc:format>image/svg+xml</dc:format>
        <dc:type
           rdf:resource="http://purl.org/dc/dcmitype/StillImage" />
        <dc:title></dc:title>
      </cc:Work>
    </rdf:RDF>
  </metadata>
  <g
     transform="translate(-179.33671,-100.42894)"
     id="layer1">
    <path
       id="path4342"
       d="m 362.90117,274.48353 c 59.65331,31.80176 59.24804,-20.88379 41.92382,-24.13086 0.95215,9.0918 3.8623,12.31934 -5.2002,20.33692 -9.05761,8.01758 -40.83496,-12.54395 -36.72362,3.79394"
       style="fill:#ccb5a3;fill-opacity:1;fill-rule:nonzero;stroke:none" />
    <path
       id="path4344"
       d="m 220.51347,200.06946 c -2.08496,3.04688 -4.50195,5.76173 -7.45605,6.41602 -3.125,0.69336 -6.32325,-0.625 -8.91114,-2.2998 -5.51269,-3.55957 -9.47754,-9.70703 -11.40625,-15.89845 -3.3789,-10.85448 1.7041,-22.45117 7.6416,-31.5039 4.38477,-6.67968 9.63379,-12.88574 14.39942,-19.29687 9.98535,-13.42774 22.30468,-26.40625 37.65137,-33.72559 5.92772,-2.82227 15.62987,-4.93164 21.92382,-1.70898 13.5205,6.91894 0.88379,25.72265 -4.40918,33.63769 -10.84473,16.21582 -24.52636,30.02442 -36.32324,45.47363 -2.76367,3.62305 -5.33203,7.39257 -8.06152,11.04004 -1.51367,2.01172 -3.14453,5.07812 -5.04883,7.86621"
       style="fill:#542b1e;fill-opacity:1;fill-rule:nonzero;stroke:none" />
    <path
       id="path4346"
       d="m 250.67461,210.63099 c 0,0 9.64843,68.17383 0,75.57129 -9.64356,7.39258 23.15428,1.92871 23.15428,1.92871 l -4.50195,-56.59667 -18.65233,-20.90333"
       style="fill:#a39487;fill-opacity:1;fill-rule:nonzero;stroke:none" />
    <path
       id="path4348"
       d="m 304.51249,215.31361 c 0,0 9.64844,68.17383 0,75.56641 -9.64843,7.39746 23.1543,1.93359 23.1543,1.93359 l -4.50196,-56.59668 -18.65234,-20.90332"
       style="fill:#a39487;fill-opacity:1;fill-rule:nonzero;stroke:none" />
    <path
       id="path4350"
       d="m 365.64042,229.28334 c -13.31543,-13.04687 -29.3457,-22.95898 -42.71973,-36.04006 -23.17871,-22.67577 -36.5625,-52.07029 -47.76855,-81.93358 -4.4043,-11.7334 -11.23047,-10.60059 -22.2168,-9.15039 -17.16308,2.27051 -34.53613,1.59668 -51.80175,1.76269 -7.57324,0.0684 -17.68067,0.59571 -16.96289,10.78125 0.50781,7.14844 5.07812,14.52637 10.41992,19.11621 9.24805,7.93946 20.3418,10.58594 32.08496,11.71875 2.86133,0.27833 5.59082,0.60548 8.40332,0.4541 0,0 -3.69629,56.27931 31.99707,91.16701 2.25097,25.5664 11.57715,49.6875 -1.60645,57.40234 -13.18848,7.71485 22.50977,9.00391 24.92187,3.53516 2.41212,-5.46388 0.96192,-40.67871 0.96192,-40.67871 0,0 17.85156,16.88476 31.1963,11.57715 -6.59669,9.16503 1.44531,22.02636 1.44531,22.02636 0,0 0.64452,2.25097 -4.17969,5.95215 -4.82422,3.69629 40.6787,2.73437 52.73438,-0.16114 12.06053,-2.89062 17.04588,-44.05272 -6.90919,-67.52929"
       style="fill:#ccb5a3;fill-opacity:1;fill-rule:nonzero;stroke:none" />
    <path
       id="path4352"
       d="m 278.12089,157.11048 c 2.81738,-1.74317 9.92675,-7.55371 14.01855,-11.15234 4.08692,-3.59864 -5.25878,-13.08106 -7.55371,-10.542 0.37598,1.37696 1.9043,4.05762 1.9043,4.05762 -22.92969,19.99511 -50.78613,14.29199 -53.74023,13.21778 -2.95899,-1.08887 -4.92188,7.40722 -0.54199,9.07714 4.38476,1.67969 21.7627,10.33692 45.91308,-4.6582"
       style="fill:#3f9785;fill-opacity:1;fill-rule:nonzero;stroke:none" />
    <path
       id="path4354"
       d="m 290.76737,219.96693 c 0.29786,5.58594 -5.6787,12.72461 -10.69335,14.28223 -6.53321,2.03613 -14.28711,-0.33203 -19.97559,-3.6914 -11.51367,-6.79688 -14.29198,-20.52247 -16.50878,-32.74416 -1.33302,-7.33398 -1.37208,-14.50683 -1.7334,-21.90429 -0.93262,-19.21388 -0.79102,-39.16016 7.02148,-57.11914 2.90528,-6.67481 9.13574,-15.31739 16.7871,-17.17285 13.85743,-3.359379 17.49513,14.69726 19.16504,24.34082 3.15919,18.27636 3.00781,36.96288 2.89062,55.43944 -0.0341,5.38575 0.13184,10.76173 0.54688,16.1377 0.54687,7.08498 1.45509,13.86231 2.3584,20.88869 0.0684,0.52734 0.11225,1.04004 0.1416,1.54296"
       style="fill:#542b1e;fill-opacity:1;fill-rule:nonzero;stroke:none" />
    <path
       id="path4356"
       d="m 237.25663,116.44642 c 0,-1.50391 -1.21581,-2.72461 -2.72461,-2.72461 -1.5039,0 -2.7246,1.2207 -2.7246,2.72461 0,1.50879 1.2207,2.72949 2.7246,2.72949 1.5088,0 2.72461,-1.2207 2.72461,-2.72949"
       style="fill:#542b1e;fill-opacity:1;fill-rule:nonzero;stroke:none" />
    <path
       id="path4358"
       d="m 186.36308,105.4845 -0.15137,0 c -3.74511,0 -6.875,3.125 -6.875,6.875 0,3.74512 3.12989,6.875 6.875,6.875 l 0.15137,0 c 3.75,0 6.875,-3.12988 6.875,-6.875 0,-3.75 -3.125,-6.875 -6.875,-6.875"
       style="fill:#542b1e;fill-opacity:1;fill-rule:nonzero;stroke:none" />
    <path
       id="path4360"
       d="m 199.07304,124.44935 c -1.48926,0.96191 -3.06641,1.75781 -4.73144,2.30469 -0.0537,-0.15137 -0.14649,-0.30274 -0.28321,-0.43946 -1.17187,-1.20117 -2.16797,-2.54883 -3.07617,-3.95508 -0.7959,-1.23535 -2.07519,-3.17382 -1.46484,-4.69238 0.60058,-1.49902 -1.81641,-2.14355 -2.41211,-0.66406 -1.34766,3.35937 2.1289,7.80762 4.53125,10.39062 -0.18067,0.0244 -0.36133,0.0586 -0.54688,0.0781 -1.58203,0.17578 -1.60156,2.67578 0,2.5 3.34473,-0.36621 6.4209,-1.53808 9.24317,-3.36425 1.34765,-0.87403 0.0977,-3.03711 -1.25977,-2.15821"
       style="fill:#542b1e;fill-opacity:1;fill-rule:nonzero;stroke:none" />
  </g>
</svg>
