<?xml version="1.0" encoding="UTF-8" standalone="no"?>
<svg
   xmlns:dc="http://purl.org/dc/elements/1.1/"
   xmlns:cc="http://creativecommons.org/ns#"
   xmlns:rdf="http://www.w3.org/1999/02/22-rdf-syntax-ns#"
   xmlns:svg="http://www.w3.org/2000/svg"
   xmlns="http://www.w3.org/2000/svg"
   version="1.1"
   id="svg8635"
   viewBox="0 0 248.28699 250.48406"
   height="70.692169mm"
   width="70.072105mm">
  <defs
     id="defs8637" />
  <metadata
     id="metadata8640">
    <rdf:RDF>
      <cc:Work
         rdf:about="">
        <dc:format>image/svg+xml</dc:format>
        <dc:type
           rdf:resource="http://purl.org/dc/dcmitype/StillImage" />
        <dc:title></dc:title>
      </cc:Work>
    </rdf:RDF>
  </metadata>
  <g
     transform="translate(-281.57079,-352.83447)"
     id="layer1">
    <path
       id="path4202"
       d="m 362.86035,515.96001 c 0,0 -0.24902,68.39844 12.03125,76.72851 16.85546,11.44044 -14.36035,8.95509 -21.85547,8.51075 -7.49512,-0.43946 -17.17285,-88.75977 -17.17285,-88.75977 l 26.58691,0 0.41016,3.52051"
       style="fill:#5c3d28;fill-opacity:1;fill-rule:nonzero;stroke:none" />
    <path
       id="path4204"
       d="m 438.33398,516.91705 c 0,0 -6.31835,68.10546 3.42773,77.34375 13.38379,12.68554 -13.07128,7.81737 -19.43847,6.80664 -6.3623,-1.01563 -6.74316,-89.72657 -6.74316,-89.72657 l 22.71483,2.03613 0.039,3.54005"
       style="fill:#7d5135;fill-opacity:1;fill-rule:nonzero;stroke:none" />
    <path
       id="path4206"
       d="m 297.02539,434.50005 c -28.25195,14.90235 -10.41994,45.68847 -3.70605,55.51757 1.82129,-4.61913 4.49706,-9.07713 8.33007,-13.19335 -5.1709,-5.75196 -12.75879,-18.95996 -4.62402,-42.32422"
       style="fill:#7d5135;fill-opacity:1;fill-rule:nonzero;stroke:none" />
    <path
       id="path4208"
       d="m 461.32226,372.37115 c 1.44043,0 2.94434,0.0586 4.47754,0.19531 l -6.20117,-18.44727 c 0,0 -5.5957,8.02735 -11.31835,14.6338 l 5.26855,5.02928 c 0.4541,-0.19531 0.92285,-0.37108 1.4209,-0.52733 1.76268,-0.55177 3.82812,-0.88379 6.35253,-0.88379"
       style="fill:#573826;fill-opacity:1;fill-rule:nonzero;stroke:none" />
    <path
       id="path4210"
       d="m 424.58398,354.11919 c -0.96679,2.89551 7.95898,24.1211 13.75,23.1543 2.30468,-0.38087 6.15235,-4.14063 9.9463,-8.5205 5.72265,-6.60645 11.31835,-14.6338 11.31835,-14.6338 0,0 -34.04785,-2.89063 -35.01465,0"
       style="fill:#7d5135;fill-opacity:1;fill-rule:nonzero;stroke:none" />
    <path
       id="path4212"
       d="m 488.6123,385.64751 c 3.57423,2.00684 2.77833,6.24024 5.21485,10.34668 l 9.03808,-3.44727 c -2.99804,-8.208 -5.37598,-17.70018 -5.37598,-17.70018 l -8.87695,10.80077"
       style="fill:#573826;fill-opacity:1;fill-rule:nonzero;stroke:none" />
    <path
       id="path4214"
       d="m 497.13281,374.84674 c 0,0 2.37793,9.49218 5.37598,17.70018 1.9873,5.44434 4.24316,10.32227 6.26465,11.50392 5.06347,2.95897 20.95215,-13.70118 21.08397,-16.74805 0.12697,-3.04688 -32.7246,-12.45605 -32.7246,-12.45605"
       style="fill:#7d5135;fill-opacity:1;fill-rule:nonzero;stroke:none" />
    <path
       id="path4216"
       d="m 443.58789,442.82036 c -4.33594,3.22266 -10.83985,5.60548 -16.01074,6.18164 -55.86915,9.24805 -60.21485,-3.54004 -104.82911,14.1504 -9.38476,3.7207 -16.1914,8.41309 -21.09863,13.67187 -3.83301,4.11622 -6.50878,8.57422 -8.33007,13.19335 -6.92872,17.56837 -1.5918,37.41212 -1.44531,49.02344 -11.57229,13.02735 -10.76174,51.36231 -9.79494,58.11524 0.96191,6.75294 27.80275,6.44044 20.88869,-3.36914 -6.91407,-9.80469 3.05663,-45.09766 3.05663,-45.09766 0,0 34.02344,2.16309 37.77832,-25.78613 -2.48535,-0.49805 -9.94629,-2.70507 -13.60352,-11.6211 l 1.78223,-0.73241 c 3.88184,9.458 12.49512,10.5371 12.85645,10.57616 l -0.11225,1.06447 c 52.73925,36.44531 96.17675,11.48925 103.93066,6.44042 -1.64551,-2.25586 -6.48437,-9.37989 -4.98047,-13.45704 l 1.81152,0.66895 c -1.13281,3.06153 3.34473,9.86817 5.16114,12.23145 l -0.73731,0.5664 c 0.18555,6.28419 1.53808,46.84083 6.14258,69.5752 1.26464,5.56153 25.87402,9.36035 19.92188,-3.94531 -5.95704,-13.2959 -11.17676,-48.95996 2.08984,-105.63476 2.96875,-12.6709 5.3711,-22.12891 7.3584,-29.56544 -2.48048,0.30274 -3.96973,0.29298 -6.11817,0.29298 -23.64746,0 -32.51953,-12.1045 -35.71777,-16.54298"
       style="fill:#7d5135;fill-opacity:1;fill-rule:nonzero;stroke:none" />
    <path
       id="path4218"
       d="m 406.98633,390.86724 c 1.61621,-0.85938 3.75976,-3.00293 3.25195,-5.03907 l -0.0439,-0.15625 c -0.55176,-1.72851 -2.89551,-2.47558 -4.36036,-3.20312 -0.90331,-0.44921 -1.83594,-1.04004 -2.79296,-1.66015 -2.79298,-1.82129 -5.81055,-3.90138 -9.0625,-3.37403 -3.4961,0.56153 -2.0459,5.05859 -1.20605,7.25587 0.32713,0.85448 0.68847,1.68456 1.08886,2.49022 0.61035,1.22559 1.33301,2.38281 2.3291,3.36915 2.85645,2.82226 7.51465,2.06054 10.7959,0.31738"
       style="fill:#261717;fill-opacity:1;fill-rule:nonzero;stroke:none" />
    <path
       id="path4220"
       d="m 445.4873,515.84282 -1.81152,-0.66895 c -1.5039,4.07715 3.33496,11.20118 4.98047,13.45704 0.21484,0.29296 0.38085,0.5127 0.46386,0.62011 l 0.79102,-0.61035 0.73731,-0.5664 c -1.81641,-2.36328 -6.29395,-9.16992 -5.16114,-12.23145"
       style="fill:#573826;fill-opacity:1;fill-rule:nonzero;stroke:none" />
    <path
       id="path4222"
       d="m 331.98144,510.54986 -1.78223,0.73241 c 3.65723,8.91603 11.11817,11.12305 13.60352,11.6211 0.45411,0.0928 0.76172,0.13672 0.8252,0.1416 l 0.0976,-0.85448 0.11225,-1.06447 c -0.36132,-0.039 -8.97461,-1.11816 -12.85645,-10.57616"
       style="fill:#573826;fill-opacity:1;fill-rule:nonzero;stroke:none" />
    <path
       id="path4224"
       d="m 449.54491,378.4063 c 2.42677,0 4.39454,1.80664 4.39454,4.0332 0,2.23145 -1.96777,4.03321 -4.39454,4.03321 -2.42187,0 -4.38963,-1.80176 -4.38963,-4.03321 0,-2.22656 1.96776,-4.0332 4.38963,-4.0332 z m 17.49513,15.24902 c 0,-2.22656 1.96289,-4.0332 4.38965,-4.0332 2.42187,0 4.38965,1.80664 4.38965,4.0332 0,2.23145 -1.96778,4.03809 -4.38965,4.03809 -2.42676,0 -4.38965,-1.80664 -4.38965,-4.03809 z m 25.4834,-15.33691 c -2.43165,-4.10645 -5.64941,-7.00684 -9.21875,-9.01855 -4.39941,-2.47559 -9.32129,-3.61817 -13.9502,-4.03321 -1.5332,-0.13184 -3.03711,-0.19531 -4.47265,-0.19531 -2.5293,0 -4.58985,0.33203 -6.35255,0.88378 -0.49804,0.15625 -0.97168,0.33204 -1.42089,0.52735 -7.07031,3.00782 -8.54981,10.18555 -15.38086,14.42872 -1.1084,0.68847 -2.3877,1.17675 -3.78419,1.51855 -9.27734,2.25097 -24.12109,-2.29004 -34.90234,-1.62109 0.95703,0.62011 1.88965,1.21094 2.79297,1.66015 1.46485,0.72754 3.8086,1.47461 4.36036,3.20312 l 0.0439,0.15625 c 0.50782,2.03614 -1.63573,4.17969 -3.25195,5.03907 -3.28125,1.74316 -7.93945,2.50488 -10.7959,-0.31738 -0.99608,-0.98634 -1.71875,-2.14356 -2.3291,-3.36915 -0.22948,4.41406 3.13965,10.57129 7.77344,16.792 0.20508,0 0.4248,0.12695 0.60059,0.2246 0.36621,0.19531 0.72754,0.41016 1.11327,0.56153 0.91309,0.36133 1.85548,0.63477 2.80274,0.87402 1.36719,0.35156 2.75879,0.625 4.16016,0.82031 1.99219,0.2832 4.0039,0.40528 6.01074,0.44923 2.54883,0.0538 5.12695,0.0538 7.6709,-0.0879 l 0.1025,1.92872 c -1.83105,0.0976 -3.53027,0.1416 -5.1123,0.1416 -1.97755,0 -3.96485,-0.0635 -5.93262,-0.21484 -2.50488,-0.19531 -4.99024,-0.61524 -7.4414,-1.19141 -0.83009,-0.19532 -1.66504,-0.41504 -2.46583,-0.72754 -0.625,-0.24903 -1.22559,-0.46386 -1.59667,-0.90331 -0.41017,20.82031 27.4414,14.50195 41.46972,22.8955 4.06738,2.43652 5.53223,5.00488 5.2832,7.47071 l 0.15625,0.1416 c 1.74805,2.22656 12.15333,18.99414 39.10156,14.5996 0,0 0.84962,-2.87109 1.21094,-4.09668 l 0.0195,0 c 4.23828,-15.00976 5.84473,-19.98535 7.97851,-41.66992 1.20605,-12.25098 -0.67382,-20.85449 -4.24316,-26.87011"
       style="fill:#7d5135;fill-opacity:1;fill-rule:nonzero;stroke:none" />
    <path
       id="path4226"
       d="m 449.54491,386.47271 c 2.42677,0 4.39454,-1.80176 4.39454,-4.03321 0,-2.22656 -1.96777,-4.0332 -4.39454,-4.0332 -2.42187,0 -4.38963,1.80664 -4.38963,4.0332 0,2.23145 1.96776,4.03321 4.38963,4.03321"
       style="fill:#261717;fill-opacity:1;fill-rule:nonzero;stroke:none" />
    <path
       id="path4228"
       d="m 403.14355,406.75102 c 0.80079,0.3125 1.63574,0.53223 2.46583,0.72754 2.45116,0.57618 4.93652,0.9961 7.4414,1.19141 1.96777,0.15137 3.95507,0.21484 5.93262,0.21484 1.58203,0 3.28125,-0.044 5.1123,-0.1416 l -0.1025,-1.92871 c -2.54395,0.14161 -5.12207,0.14161 -7.6709,0.0879 -2.00684,-0.044 -4.01855,-0.16602 -6.01074,-0.44922 -1.40137,-0.19531 -2.79297,-0.46875 -4.16016,-0.82031 -0.94726,-0.23925 -1.88965,-0.51269 -2.80274,-0.87403 -0.38573,-0.15136 -0.74706,-0.36621 -1.11327,-0.56152 -0.17579,-0.0976 -0.39551,-0.2246 -0.60059,-0.2246 l -0.26367,0.0928 c -0.20997,0.18553 -0.21484,0.58593 -0.19532,0.83983 0.0342,0.40528 0.17579,0.70313 0.3711,0.94239 0.37109,0.43945 0.97168,0.65429 1.59668,0.90331"
       style="fill:#261717;fill-opacity:1;fill-rule:nonzero;stroke:none" />
    <path
       id="path4230"
       d="m 487.55761,450.95512 c -26.94823,4.39454 -37.35351,-12.37303 -39.10156,-14.5996 l -0.15625,-0.1416 c -1.92382,-1.83593 -7.85645,2.43652 -5.37109,5.69824 0.18554,0.24903 0.40527,0.55664 0.65918,0.9082 3.19824,4.43848 12.07031,16.54298 35.71777,16.54298 2.14844,0 3.63769,0.01 6.11817,-0.29298 0.94726,-0.11225 2.04101,-0.27344 3.3789,-0.49316 4.80957,-0.81055 2.92481,-12.52441 -0.0146,-11.71875 l -0.0195,0 c -0.36132,1.22559 -1.21094,4.09667 -1.21094,4.09667"
       style="fill:#306647;fill-opacity:1;fill-rule:nonzero;stroke:none" />
    <path
       id="path4232"
       d="m 471.42969,389.06549 c -2.76368,0 -5,2.05566 -5,4.58983 0,2.53907 2.23632,4.59473 5,4.59473 2.75879,0 4.99511,-2.05566 4.99511,-4.59473 0,-2.53417 -2.23632,-4.58983 -4.99511,-4.58983"
       style="fill:#261717;fill-opacity:1;fill-rule:nonzero;stroke:none" />
  </g>
</svg>
