<?xml version="1.0" encoding="UTF-8" standalone="no"?>
<svg
   xmlns:dc="http://purl.org/dc/elements/1.1/"
   xmlns:cc="http://creativecommons.org/ns#"
   xmlns:rdf="http://www.w3.org/1999/02/22-rdf-syntax-ns#"
   xmlns:svg="http://www.w3.org/2000/svg"
   xmlns="http://www.w3.org/2000/svg"
   version="1.1"
   id="svg6303"
   viewBox="0 0 248.85325 204.32485"
   height="57.665012mm"
   width="70.231918mm">
  <defs
     id="defs6305" />
  <metadata
     id="metadata6308">
    <rdf:RDF>
      <cc:Work
         rdf:about="">
        <dc:format>image/svg+xml</dc:format>
        <dc:type
           rdf:resource="http://purl.org/dc/dcmitype/StillImage" />
        <dc:title></dc:title>
      </cc:Work>
    </rdf:RDF>
  </metadata>
  <g
     transform="translate(655.85519,184.08593)"
     id="layer1">
    <path
       id="path4333"
       d="m -463.9553,-46.69007 c 0,0 0.21972,49.9853499 -10.58594,56.0742199 -14.83886,8.3593701 12.63672,6.5429701 19.23829,6.2207101 6.59178,-0.32227 15.1123,-64.86816 15.1123,-64.86816 l -23.39844,0 -0.36621,2.57324"
       style="fill:#5c3d28;fill-opacity:1;fill-rule:nonzero;stroke:none" />
    <path
       id="path4335"
       d="m -636.18187,-122.14416 c 0.81543,-0.0489 1.6211,-0.19043 2.42188,-0.35645 2.34864,-0.48341 4.66309,-1.11817 6.9043,-1.95313 1.76757,-0.65429 3.50586,-1.39647 5.21484,-2.1875 1.36718,-0.63476 2.82227,-1.35254 4.36523,-2.17285 l -0.85937,-1.62109 c -2.14844,1.13769 -4.37011,2.17285 -6.59668,3.14453 -1.75781,0.7666 -3.54492,1.46485 -5.37597,2.02149 -1.28906,0.39062 -2.59766,0.71288 -3.92579,0.96191 -0.91796,0.16601 -1.84082,0.30761 -2.77344,0.36621 -0.39551,0.0195 -0.79101,-0.0195 -1.1914,-0.044 -0.19043,-0.0146 -0.42968,-0.039 -0.60547,0.044 l -0.18555,0.18555 c -0.10738,0.24902 0.044,0.5957 0.16602,0.80566 0.19043,0.33692 0.4248,0.54199 0.69335,0.66406 0.49805,0.23438 1.10353,0.18067 1.74805,0.14161"
       style="fill:#261717;fill-opacity:1;fill-rule:nonzero;stroke:none" />
    <path
       id="path4337"
       d="m -598.20335,-165.55725 c -2.09473,0.97168 -3.07129,3.32031 -2.17773,5.24414 0.708,1.5332 2.37793,2.31445 4.08691,2.09472 0.44434,-0.0537 0.89355,-0.16601 1.32324,-0.36621 2.09961,-0.97168 3.07129,-3.31543 2.17774,-5.24414 -0.42481,-0.92285 -1.21094,-1.57226 -2.13868,-1.90429 -1.00097,-0.35157 -2.18261,-0.33204 -3.27148,0.17578"
       style="fill:#261717;fill-opacity:1;fill-rule:nonzero;stroke:none" />
    <path
       id="path4339"
       d="m -645.69358,-137.80823 c -0.20996,-2.1875 -2.52442,-3.75 -5.22461,-3.59864 l -0.23438,0.005 c -2.80273,0.26855 -4.90235,2.30958 -4.6875,4.55567 0.21484,2.25097 2.81738,5.51757 5.61524,5.25391 0.21973,-0.0244 0.42969,-0.0684 0.62988,-0.13184 2.46093,-0.70312 4.09668,-4.00878 3.90137,-6.08398"
       style="fill:#261717;fill-opacity:1;fill-rule:nonzero;stroke:none" />
    <path
       id="path4341"
       d="m -417.48069,-77.1637 c 1.78711,-3.53515 3.5498,-7.084967 5.24902,-10.683587 1.7334,-3.68653 6.1084,-11.6211 5.07324,-15.634763 -0.11712,-0.45412 -0.27832,-0.81055 -0.47851,-1.08399 -1.55763,-2.14844 -5.35645,0.92774 -7.46094,2.76367 -4.94141,4.316403 -9.83887,8.989253 -14.97559,12.460943 5.40039,2.14355 10.35157,6.118157 12.59278,12.177727"
       style="fill:#5c3d28;fill-opacity:1;fill-rule:nonzero;stroke:none" />
    <path
       id="path4343"
       d="m -594.97093,-158.5846 c -0.42969,0.2002 -0.8789,0.3125 -1.32324,0.36621 -1.70898,0.21973 -3.37891,-0.56152 -4.08691,-2.09472 -0.89356,-1.92383 0.083,-4.27246 2.17773,-5.24414 1.08887,-0.50782 2.27051,-0.52735 3.27148,-0.17578 0.92774,0.33203 1.71387,0.98144 2.13868,1.90429 0.89355,1.92871 -0.0781,4.27246 -2.17774,5.24414 z m 177.97364,74.023433 c -2.05566,-2.80761 -4.8584,-5.10741 -8.44239,-6.61619 -10.23437,-4.30177 -21.00586,-0.86427 -31.34765,1.03026 -8.23731,1.50391 -16.41114,2.53906 -24.77051,1.55274 -11.40136,-1.34278 -23.70118,-3.15431 -34.00391,-8.47657 -9.27245,-4.790043 -17.35839,-11.840813 -22.7832,-20.805663 -4.8584,-8.03223 -9.79004,-17.62206 -12.41699,-26.65527 -3.13476,-10.77149 -5.95704,-21.7627 -12.90528,-30.83985 -6.77246,-8.85253 -17.6709,-10.72753 -27.51465,-6.67968 -9.33105,3.833 -16.2793,11.19629 -23.54492,17.90527 -4.78515,4.41895 -10.02441,8.36914 -15.66406,11.64551 -5.625,3.27148 -11.88965,5.25879 -17.44629,8.62304 -1.32324,0.80079 -2.33886,1.63087 -3.08105,2.47071 2.70019,-0.15137 5.01465,1.41113 5.22461,3.59863 0.19531,2.0752 -1.44044,5.38086 -3.90137,6.08399 2.53906,2.70019 6.49413,5.35156 10.99121,7.7832 0.17579,-0.083 0.4149,-0.0566 0.60547,-0.044 0.40026,0.0264 0.79589,0.0635 1.1914,0.044 0.93262,-0.0586 1.85548,-0.2002 2.77344,-0.36621 1.32813,-0.24903 2.63673,-0.57129 3.92579,-0.96191 1.83105,-0.55664 3.61816,-1.25489 5.37597,-2.02149 2.22657,-0.97168 4.44824,-2.00684 6.59668,-3.14453 l 0.85937,1.62109 c -1.54296,0.82031 -2.99805,1.53809 -4.36523,2.17285 -1.70898,0.79103 -3.44843,1.53007 -5.21484,2.1875 -3.21895,1.19804 -7.47559,2.73438 -10.96191,2.22169 1.51855,0.2246 4.22362,3.73535 6.05468,4.48241 2.2705,0.93263 4.80469,1.25978 7.25098,1.22559 10.5957,-0.16113 24.24805,-6.68456 34.44824,-1.84081 7.27538,3.45702 6.25488,14.6582 6.62597,21.459943 0.49316,9.10645 0.9375,18.325197 3.38868,27.158217 2.18261,7.85156 6.57226,14.94629 7.1875,23.208 0.97167,12.97364 -3.52539,25.27344 -6.06934,37.7929699 -0.98144,4.82422 -1.26953,9.90723 -3.47168,14.39453 -1.67481,3.42285 -5.78613,6.3867201 -5.46875,10.5322201 0.31738,4.07715 12.75879,4.32618 15.35644,3.91603 2.65138,-0.41993 6.81641,-2.03614 7.56349,-5.0879 2.4121,-9.8583901 12.8662,-50.64453 12.8662,-50.64453 0,0 12.05567,41.8017699 2.94434,50.13672 -5.92773,5.41992 11.68457,3.40332 17.9541,2.43652 6.26953,-0.96191 4.02343,-42.76855 3.21777,-52.8955 41.64063,13.98925 90.84473,-1.61134 90.84473,-1.61134 0,0 10.44922,38.33008989 -4.34082,49.68263 -11.64062,8.93555 19.29199,8.20312 22.1875,4.82421 1.24024,-1.45019 3.02247,-11.0205001 4.37988,-22.7539001 1.38184,-11.9921899 0.75196,-24.0820399 0.53224,-36.1181599 -0.15625,-8.30566 0.20507,-16.38673 1.37206,-24.62403 0.92285,-6.4795 -0.36621,-13.03222 -4.0039,-18.002937"
       style="fill:#7d5135;fill-opacity:1;fill-rule:nonzero;stroke:none" />
    <path
       id="path4345"
       d="m -584.04808,-124.33655 c -5.64452,-4.32129 -3.03711,-12.80273 -2.62206,-19.61914 0.50781,-8.50098 0.44432,-27.42188 6.3623,-33.74023 0.67382,-0.71778 1.33301,-1.21094 1.96777,-1.51368 5.00488,-2.36816 8.88184,7.07032 10.89844,12.55371 4.0625,11.02051 19.8291,27.95899 6.86035,38.45215 -4.85351,3.92579 -14.2334,7.70996 -20.43945,5.47364 -1.20606,-0.43458 -2.20704,-0.97656 -3.02735,-1.60645"
       style="fill:#2e1c17;fill-opacity:1;fill-rule:nonzero;stroke:none" />
  </g>
</svg>
