<?xml version="1.0" encoding="UTF-8" standalone="no"?>
<svg
   xmlns:dc="http://purl.org/dc/elements/1.1/"
   xmlns:cc="http://creativecommons.org/ns#"
   xmlns:rdf="http://www.w3.org/1999/02/22-rdf-syntax-ns#"
   xmlns:svg="http://www.w3.org/2000/svg"
   xmlns="http://www.w3.org/2000/svg"
   version="1.1"
   id="svg566246"
   viewBox="0 0 191.00591 212.91992"
   height="60.090733mm"
   width="53.906113mm">
  <defs
     id="defs566248">
    <clipPath
       id="clip157">
      <path
         d="m 319.69922,558 137.5,0 0,85 -137.5,0 z m 0,0"
         id="path489062" />
    </clipPath>
  </defs>
  <metadata
     id="metadata566251">
    <rdf:RDF>
      <cc:Work
         rdf:about="">
        <dc:format>image/svg+xml</dc:format>
        <dc:type
           rdf:resource="http://purl.org/dc/dcmitype/StillImage" />
        <dc:title></dc:title>
      </cc:Work>
    </rdf:RDF>
  </metadata>
  <g
     transform="translate(9.7886643,14.097755)"
     id="layer1">
    <path
       id="path496292"
       d="m -0.18416429,198.82216 171.79200429,0 0,-194.8535153 -171.79200429,0 z m 0,0"
       style="fill:#ffcc85;fill-opacity:1;fill-rule:nonzero;stroke:none" />
    <path
       id="path496294"
       d="m 15.987736,43.333885 27.7295,0 0,-14.05274 -27.7295,0 z m 0,0"
       style="fill:#38636b;fill-opacity:1;fill-rule:nonzero;stroke:none" />
    <path
       id="path496296"
       d="m 53.228936,43.333885 27.7295,0 0,-14.05274 -27.7295,0 z m 0,0"
       style="fill:#38636b;fill-opacity:1;fill-rule:nonzero;stroke:none" />
    <path
       id="path496298"
       d="m 90.470136,43.333885 27.724604,0 0,-14.05274 -27.724604,0 z m 0,0"
       style="fill:#38636b;fill-opacity:1;fill-rule:nonzero;stroke:none" />
    <path
       id="path496300"
       d="m 127.71134,43.333885 27.7247,0 0,-14.05274 -27.7247,0 z m 0,0"
       style="fill:#38636b;fill-opacity:1;fill-rule:nonzero;stroke:none" />
    <path
       id="path496302"
       d="m 15.987736,85.487215 27.7295,0 0,-14.04787 -27.7295,0 z m 0,0"
       style="fill:#38636b;fill-opacity:1;fill-rule:nonzero;stroke:none" />
    <path
       id="path496304"
       d="m 53.228936,85.487215 27.7295,0 0,-14.04787 -27.7295,0 z m 0,0"
       style="fill:#38636b;fill-opacity:1;fill-rule:nonzero;stroke:none" />
    <path
       id="path496306"
       d="m 90.470136,85.487215 27.724604,0 0,-14.04787 -27.724604,0 z m 0,0"
       style="fill:#38636b;fill-opacity:1;fill-rule:nonzero;stroke:none" />
    <path
       id="path496308"
       d="m 127.71134,85.487215 27.7247,0 0,-14.04787 -27.7247,0 z m 0,0"
       style="fill:#38636b;fill-opacity:1;fill-rule:nonzero;stroke:none" />
    <path
       id="path496310"
       d="m 15.987736,127.64541 27.7295,0 0,-14.05274 -27.7295,0 z m 0,0"
       style="fill:#38636b;fill-opacity:1;fill-rule:nonzero;stroke:none" />
    <path
       id="path496312"
       d="m 53.228936,127.64541 27.7295,0 0,-14.05274 -27.7295,0 z m 0,0"
       style="fill:#38636b;fill-opacity:1;fill-rule:nonzero;stroke:none" />
    <path
       id="path496314"
       d="m 90.470136,127.64541 27.724604,0 0,-14.05274 -27.724604,0 z m 0,0"
       style="fill:#38636b;fill-opacity:1;fill-rule:nonzero;stroke:none" />
    <path
       id="path496316"
       d="m 127.71134,127.64541 27.7247,0 0,-14.05274 -27.7247,0 z m 0,0"
       style="fill:#38636b;fill-opacity:1;fill-rule:nonzero;stroke:none" />
    <path
       id="path496318"
       d="m 32.120536,8.8123947 107.182604,0 0,-22.9101497 -107.182604,0 z m 0,0"
       style="fill:#ffcc85;fill-opacity:1;fill-rule:nonzero;stroke:none" />
    <path
       id="path496320"
       d="m 15.987736,198.82216 39.9658,0 0,-44.52148 -39.9658,0 z m 0,0"
       style="fill:#38636b;fill-opacity:1;fill-rule:nonzero;stroke:none" />
    <path
       id="path496322"
       d="m 65.728936,198.82216 39.965804,0 0,-44.52148 -39.965804,0 z m 0,0"
       style="fill:#38636b;fill-opacity:1;fill-rule:nonzero;stroke:none" />
    <path
       id="path496324"
       d="m 115.47014,198.82216 39.9659,0 0,-44.52148 -39.9659,0 z m 0,0"
       style="fill:#38636b;fill-opacity:1;fill-rule:nonzero;stroke:none" />
    <g
       transform="matrix(1.25,0,0,1.25,-399.84233,-692.17393)"
       id="g496326"
       clip-path="url(#clip157)"
       style="clip-rule:nonzero">
      <path
         id="path496328"
         d="m 312.04297,642.69531 152.80469,0 0,-17.89453 -152.80469,0 z m 0,-33.24219 152.80469,0 0,-17.89453 -152.80469,0 z m 0,-51.14062 0,17.89844 152.80469,0 0,-17.89844 -152.80469,0"
         style="fill:#594745;fill-opacity:1;fill-rule:nonzero;stroke:none" />
    </g>
    <path
       id="path496330"
       d="m -9.7886643,26.341695 191.0059043,0 0,-22.3681603 -191.0059043,0 z m 0,0"
       style="fill:#ffcc85;fill-opacity:1;fill-rule:nonzero;stroke:none" />
    <path
       id="path496332"
       d="m -9.7886643,67.899315 191.0059043,0 0,-22.37304 -191.0059043,0 z m 0,0"
       style="fill:#ffcc85;fill-opacity:1;fill-rule:nonzero;stroke:none" />
    <path
       id="path496334"
       d="m -9.7886643,109.45204 191.0059043,0 0,-22.373045 -191.0059043,0 z m 0,0"
       style="fill:#ffcc85;fill-opacity:1;fill-rule:nonzero;stroke:none" />
    <path
       id="path496336"
       d="m 15.987736,137.63564 139.448304,0 0,-1.15723 -139.448304,0 z m 0,0"
       style="fill:#594745;fill-opacity:1;fill-rule:nonzero;stroke:none" />
    <path
       id="path496338"
       d="m 15.987736,142.17177 139.448304,0 0,-1.15723 -139.448304,0 z m 0,0"
       style="fill:#594745;fill-opacity:1;fill-rule:nonzero;stroke:none" />
    <path
       id="path496340"
       d="m 15.987736,146.70791 139.448304,0 0,-1.15723 -139.448304,0 z m 0,0"
       style="fill:#594745;fill-opacity:1;fill-rule:nonzero;stroke:none" />
  </g>
</svg>
