<?xml version="1.0" encoding="UTF-8" standalone="no"?>
<svg
   xmlns:dc="http://purl.org/dc/elements/1.1/"
   xmlns:cc="http://creativecommons.org/ns#"
   xmlns:rdf="http://www.w3.org/1999/02/22-rdf-syntax-ns#"
   xmlns:svg="http://www.w3.org/2000/svg"
   xmlns="http://www.w3.org/2000/svg"
   version="1.1"
   id="svg7382"
   viewBox="0 0 212.88213 180.5127"
   height="50.944695mm"
   width="60.080067mm">
  <defs
     id="defs7384" />
  <metadata
     id="metadata7387">
    <rdf:RDF>
      <cc:Work
         rdf:about="">
        <dc:format>image/svg+xml</dc:format>
        <dc:type
           rdf:resource="http://purl.org/dc/dcmitype/StillImage" />
        <dc:title></dc:title>
      </cc:Work>
    </rdf:RDF>
  </metadata>
  <g
     transform="translate(-219.27322,-379.24871)"
     id="layer1">
    <path
       id="path4200"
       d="m 307.81425,432.20059 -2.08984,-0.97656 -1.11329,0.15625 -1.23046,0.94238 -0.89844,2.59278 3.71094,1.91406 0.83984,-1.79687 1.07422,-1.83594 -0.29297,-0.9961"
       style="fill:#87574f;fill-opacity:1;fill-rule:nonzero;stroke:none" />
    <path
       id="path4326"
       d="m 250.65605,511.11661 c 1.42579,9.35547 3.64257,22.62695 6.04004,32.28028 1.77735,7.1582 3.65235,12.32421 5.3711,12.40722 5.69823,0.27832 29.4043,1.8457 16.60156,-5.3711 -2.02638,-1.14257 -3.60351,-4.07715 -4.83399,-7.97362 -2.40234,-7.61719 -3.46191,-18.89161 -3.93066,-27.60255 -8.35449,-1.13769 -15.15136,-2.68066 -19.24805,-3.74023"
       style="fill:#543530;fill-opacity:1;fill-rule:nonzero;stroke:none" />
    <path
       id="path4328"
       d="m 335.59256,382.28849 c -5.75683,0 -9.64355,15.32715 -10.5957,19.4873 4.9414,-0.63965 12.01172,-1.46973 20.16602,-2.17774 -1.08399,-5.02929 -4.27247,-17.30956 -9.57032,-17.30956"
       style="fill:#663f3a;fill-opacity:1;fill-rule:nonzero;stroke:none" />
    <path
       id="path4330"
       d="m 421.47148,421.56583 c 0.49803,3.61328 -0.5127,7.40722 -1.88965,10.71777 l -0.0586,0.0976 c 0.55664,0.0976 1.1084,0.18553 1.64551,0.27831 0.64942,0.10737 0.90332,0.57617 0.88379,1.07422 3.87208,-3.6377 6.31348,-8.75 6.21583,-16.21093 -0.01,-0.82032 -0.11238,-1.60157 -0.26368,-2.3584 -2.14844,2.62695 -4.69726,5.18555 -6.5332,6.40136"
       style="fill:#87574f;fill-opacity:1;fill-rule:nonzero;stroke:none" />
    <path
       id="path4332"
       d="m 348.48319,412.99161 c 1.89941,0 3.44239,1.54297 3.44239,3.44238 0,1.89941 -1.54298,3.44239 -3.44239,3.44239 -1.89941,0 -3.44239,-1.54298 -3.44239,-3.44239 0,-1.89941 1.54298,-3.44238 3.44239,-3.44238 z m -41.79687,19.63379 c 0,0 -0.0684,2.583 -0.40527,3.6084 -0.33691,1.03028 41.28905,29.0332 55.64453,31.92383 10.07812,2.03125 10.708,-0.0195 10.68358,-0.083 -0.11225,-0.40039 -0.083,-1.0791 -0.083,-1.0791 l 1.76269,-5.2539 c 0.16114,0.0195 0.31739,0.0732 0.47851,0.10737 -0.25878,-5.50292 -0.34178,-10.00976 0.31739,-11.0791 5.52735,-8.89647 32.03125,-5.34179 45.41016,-15.70312 -5.01465,-0.83008 -10.2588,-1.98242 -13.39356,-6.34278 -0.94726,-1.30859 1.2207,-2.5537 2.15333,-1.25976 1.8457,2.56347 4.79492,3.71582 7.83202,4.41895 l 0.083,-0.26368 c 1.21094,-2.90527 2.2168,-6.22558 1.86035,-9.40917 -3.9502,-0.97656 -13.53027,-9.51173 -10.44921,-10.83496 2.52929,-1.5625 8.82324,-3.26173 14.27245,-4.10157 -13.85254,-10.92773 -51.39648,-9.95606 -77.69043,-7.67578 -8.1543,0.70801 -15.22461,1.53808 -20.16601,2.17773 -4.66309,0.60548 -7.4414,1.04493 -7.4414,1.04493 0,0 -7.49023,-27.74903 -17.72949,-23.03223 -8.26172,3.80859 1.30371,34.1748 3.55469,52.53418 1.2207,-0.0928 2.4414,0.1025 3.30566,0.30274"
       style="fill:#87574f;fill-opacity:1;fill-rule:nonzero;stroke:none" />
    <path
       id="path4334"
       d="m 250.12871,552.7963 c -2.61719,-2.01172 -4.30665,-5.00489 -5.35645,-8.48634 -4.07715,-13.4912 1.61133,-34.38476 1.61133,-34.38476 0,0 1.54297,0.48829 4.27246,1.19141 4.09669,1.05957 10.89356,2.60254 19.24805,3.74023 15.37109,2.08985 36.01074,2.78809 54.86326,-3.54491 -0.40038,5.04882 -1.21093,19.20897 -0.78612,30.43456 0.30761,8.2129 1.2793,14.8584 3.56445,15.20996 5.41016,0.83008 20.60547,2.57325 15.49316,-2.10449 -2.39257,-2.1875 -3.08594,-7.0459 -2.90527,-12.74902 0.41503,-13.05176 5.44922,-30.5127 5.44922,-30.5127 0,0 4.53613,17.70509 7.91504,31.03516 1.38184,5.45899 2.57812,10.19531 3.18359,12.66601 2.08008,8.50587 27.17286,3.07129 17.72461,-1.5039 -1.99219,-0.9668 -3.22265,-4.72656 -3.8623,-10.14648 -0.4541,-3.87695 -0.61035,-8.59864 -0.51758,-13.7793 0.25879,-14.0918 2.33398,-31.5039 5.05859,-44.18458 0.45899,-2.12401 0.47851,-5.92772 0.33691,-10.26366 -1.26465,0.63965 -2.7832,1.07421 -4.65331,1.07421 -2.55371,0 -7.29005,-0.43945 -10.9375,-1.17187 -13.11036,-2.6416 -45.16601,-22.87598 -56.57714,-31.9873 -1.54785,4.19433 -9.4629,6.23046 -19.25781,7.08983 -1.78711,0.15625 -3.63281,0.27344 -5.51759,0.36134 -15.77636,0.70313 -33.94531,-0.90821 -38.48632,-1.34766 -0.68848,-0.0684 -1.10352,-0.11225 -1.10352,-0.11225 0,0 -1.9873,-3.31055 -6.25,-7.51465 -2.83691,-2.79785 -6.67481,-5.99121 -11.64063,-8.88184 -2.23145,2.08984 -2.03125,8.6084 -0.89844,16.875 1.08886,7.93945 3.04199,17.48535 4.56055,26.31348 1.62598,9.47753 2.74903,18.11523 1.74316,22.99316 -1.66016,8.06641 -0.75195,24.78516 0.80567,38.21777 0.36132,3.13965 0.75683,6.09375 1.16698,8.7207 0.90823,5.84962 1.86525,10.04884 2.60744,10.91309 2.49511,2.91016 29.18945,3.54493 19.14551,-4.16015"
       style="fill:#87574f;fill-opacity:1;fill-rule:nonzero;stroke:none" />
    <path
       id="path4336"
       d="m 359.83085,475.31583 c 3.64745,0.73242 8.38379,1.17187 10.9375,1.17187 1.87011,0 3.38866,-0.43456 4.65331,-1.07421 1.33789,-0.67384 2.38282,-1.57715 3.23243,-2.44629 1.43555,-1.46485 1.42577,-4.11621 0.86426,-6.11329 -0.60059,-2.11426 -2.43652,-4.46777 -4.75099,-5.00488 -0.16112,-0.0341 -0.31737,-0.0879 -0.47851,-0.10738 l -1.76269,5.2539 c 0,0 -0.0292,0.67871 0.083,1.0791 0.0244,0.0635 -0.60546,2.11426 -10.68358,0.083 -14.35548,-2.89062 -54.99999,-31.05469 -55.64453,-31.92382 -0.73243,-0.98634 -2.90039,-3.91114 -2.90039,-3.91114 -1.2207,0.0928 -2.43652,0.47851 -3.29101,1.43555 -0.46875,0.52246 -1.82618,3.49121 -0.91309,5.63965 0.29296,0.69824 1.77246,2.09472 4.07715,3.93066 11.41113,9.11133 43.46678,29.3457 56.57714,31.9873"
       style="fill:#d9282e;fill-opacity:1;fill-rule:nonzero;stroke:none" />
    <path
       id="path4338"
       d="m 348.48319,419.87638 c 1.89941,0 3.44239,-1.54298 3.44239,-3.44239 0,-1.89941 -1.54298,-3.44238 -3.44239,-3.44238 -1.89941,0 -3.44239,1.54297 -3.44239,3.44238 0,1.89941 1.54298,3.44239 3.44239,3.44239"
       style="fill:#261414;fill-opacity:1;fill-rule:nonzero;stroke:none" />
    <path
       id="path4340"
       d="m 419.03006,422.21036 c 0.35645,3.18359 -0.64941,6.5039 -1.86035,9.40918 l -0.083,0.26367 c -3.0371,-0.70312 -5.98632,-1.85547 -7.83202,-4.41895 -0.93263,-1.29393 -3.10059,-0.0489 -2.15333,1.25977 3.13477,4.36036 8.37892,5.5127 13.39357,6.34277 l 0.005,0 c 0.93262,0.15625 1.5332,-0.61522 1.55273,-1.333 0.0195,-0.49805 -0.23437,-0.9668 -0.88378,-1.07422 -0.53712,-0.0927 -1.08888,-0.18067 -1.64552,-0.27832 l 0.0586,-0.0976 c 1.37695,-3.31055 2.38769,-7.10449 1.88965,-10.71778 1.83594,-1.21581 4.38476,-3.77441 6.5332,-6.40136 2.50976,-3.06641 4.47265,-6.23047 4.10644,-7.4707 -0.3662,-1.24024 -4.4873,-1.16211 -9.25782,-0.41992 -5.44921,0.83983 -11.74316,2.53906 -14.27245,4.10156 -3.08106,1.32324 6.49902,9.8584 10.44922,10.83496"
       style="fill:#261414;fill-opacity:1;fill-rule:nonzero;stroke:none" />
  </g>
</svg>
