<?xml version="1.0" encoding="UTF-8" standalone="no"?>
<svg
   xmlns:dc="http://purl.org/dc/elements/1.1/"
   xmlns:cc="http://creativecommons.org/ns#"
   xmlns:rdf="http://www.w3.org/1999/02/22-rdf-syntax-ns#"
   xmlns:svg="http://www.w3.org/2000/svg"
   xmlns="http://www.w3.org/2000/svg"
   version="1.1"
   id="svg6758"
   viewBox="0 0 230.01954 186.3429"
   height="52.590107mm"
   width="64.916626mm">
  <defs
     id="defs6760" />
  <metadata
     id="metadata6763">
    <rdf:RDF>
      <cc:Work
         rdf:about="">
        <dc:format>image/svg+xml</dc:format>
        <dc:type
           rdf:resource="http://purl.org/dc/dcmitype/StillImage" />
        <dc:title></dc:title>
      </cc:Work>
    </rdf:RDF>
  </metadata>
  <g
     transform="translate(-322.13308,-370.61932)"
     id="layer1">
    <path
       id="path4378"
       d="m 381.71313,503.82866 c 0,0 6.7871,40.01465 12.70507,44.77539 5.91309,4.75586 -17.14843,5.23926 -18.53516,0 -1.38671,-5.24414 -15.20019,-42.06542 -15.20019,-42.06542 l 21.03028,-2.70997"
       style="fill:#9e9182;fill-opacity:1;fill-rule:nonzero;stroke:none" />
    <path
       id="path4380"
       d="m 326.12719,409.31694 c 1.90429,-2.87599 16.46973,14.13574 17.85644,15.70313 2.09472,2.36327 4.28222,4.66307 6.80664,6.58202 1.31836,1.00098 4.36523,2.72949 4.0625,4.75098 -0.8789,5.90332 2.1875,16.75781 -3.84765,17.43163 -6.62598,0.73732 -20.82032,-9.53612 -24.01368,-15.07323 -3.0957,-5.36622 -5.41504,-11.51368 -4.74121,-17.79297 0.42969,-4.0625 1.60156,-8.17383 3.87696,-11.60156"
       style="fill:#9e9182;fill-opacity:1;fill-rule:nonzero;stroke:none" />
    <path
       id="path4382"
       d="m 335.79515,458.814 c 0.23438,-7.68555 0.92285,-16.43066 5.50782,-22.90527 9.28222,-13.11035 27.71485,-11.21094 41.69922,-13.37403 7.79296,-1.20116 15.41991,-3.22265 23.17383,-4.61913 6.3623,-1.14258 13.49608,-1.43555 18.55956,-5.94727 1.64062,-1.45996 2.47559,-3.78417 4.58496,-4.66797 2.64649,-1.10839 6.31836,-0.29785 9.04785,0 3.74024,0.40527 7.48048,0.86915 11.15724,1.69922 9.04296,2.03614 17.91504,5.66895 26.36719,9.42383 8.34472,3.71094 16.45995,8.15919 23.87695,13.4961 5,3.59375 10.54198,7.80761 12.66601,13.82324 0.1709,0.47363 0.40039,1.02051 0.47364,1.51367 1.56737,10.9668 0.49803,22.20703 -1.62598,33.02735 -2.34864,11.97266 -10.47852,24.04785 -10.87402,36.34277 -0.24415,7.63184 2.34375,14.71192 3.8623,22.08985 0.97167,4.71679 1.96777,11.53809 -1.4209,15.64942 -3.48144,4.22851 -12.9541,1.21093 -15.18067,-2.89063 -5.98632,-11.02539 -8.33496,-18.44239 -8.92577,-29.42382 -0.23438,-4.36037 -0.54688,-9.90724 -3.11524,-13.61818 -3.91114,-5.64941 -9.4336,-1.11327 -12.33887,2.98829 -5.54688,7.83691 -6.28907,19.09667 -3.96973,28.22265 0.97169,3.81349 8.1836,11.53321 4.80958,15.25391 -3.67188,4.05274 -17.30469,1.8457 -18.25684,-4.07226 -1.2207,-7.61719 -3.68164,-15.13184 -5.91309,-22.49024 -2.15331,-7.10449 -3.54004,-14.00879 -11.35742,-16.75292 -7.26563,-2.54884 -15.32714,-2.72462 -22.8955,-3.61818 -10.03907,-1.1914 -20.39552,-2.41699 -30.5127,-1.7871 -10.08789,0.625 -11.38184,9.0625 -11.05469,17.57324 0.28809,7.40235 1.1377,19.04297 7.44141,24.29687 5.625,4.6875 -20.61035,7.88087 -21.66016,0.55664 -1.0205,-7.15331 -4.87305,-14.5996 -7.03125,-21.45996 -6.03028,-19.16991 -7.87598,-39.28223 -7.27539,-59.30176 0.083,-2.79785 0.083,-5.86426 0.18066,-9.02833"
       style="fill:#ccb5a3;fill-opacity:1;fill-rule:nonzero;stroke:none" />
    <path
       id="path4384"
       d="m 470.84398,377.00737 c -23.74023,0 -33.5791,-7.91017 -44.4873,0 -18.40333,30.40527 2.21191,69.55566 22.30957,79.9707 20.09765,10.41016 50.49804,12.0752 68.4082,-7.91504 17.91015,-19.99511 13.74512,-69.9707 8.33008,-74.13574 -5.41504,-4.16504 -30.82031,2.08008 -54.56055,2.08008"
       style="fill:#c2ab9c;fill-opacity:1;fill-rule:nonzero;stroke:none" />
    <path
       id="path4386"
       d="m 517.07445,449.06303 c -17.91016,19.99024 -48.31055,18.3252 -68.4082,7.91504 -3.86718,-2.00684 -7.75391,-5.07324 -11.37207,-8.93555 0,0 32.19726,-27.09473 39.27734,-27.09473 7.08008,0 10.30762,-0.9375 15.61523,0 5.3125,0.9375 24.8877,28.11524 24.8877,28.11524"
       style="fill:#9e9182;fill-opacity:1;fill-rule:nonzero;stroke:none" />
    <path
       id="path4388"
       d="m 444.94554,371.3726 c 1.84083,1.19629 2.25098,3.94043 0.10738,9.1455 -2.64649,6.4209 -5.69337,12.67579 -8.83789,18.86719 -2.03614,3.99903 -4.5752,9.63868 -9.56055,10.46875 -8.08594,1.34278 -23.35938,-19.76562 -23.35938,-22.91015 0.005,-3.54004 15.72267,-8.65722 18.20313,-9.67285 4.98535,-2.05079 18.78906,-8.91114 23.44726,-5.89844"
       style="fill:#7a594f;fill-opacity:1;fill-rule:nonzero;stroke:none" />
    <path
       id="path4390"
       d="m 510.50219,371.3726 c -1.84571,1.19629 -2.25099,3.94043 -0.10737,9.1455 2.64648,6.4209 5.69336,12.67579 8.83788,18.86719 2.03614,3.99903 4.5752,9.63868 9.56055,10.46875 8.08594,1.34278 23.35938,-19.76562 23.35938,-22.91015 -0.005,-3.54004 -15.72266,-8.65722 -18.20313,-9.67285 -4.99023,-2.05079 -18.79395,-8.91114 -23.44726,-5.89844"
       style="fill:#7a594f;fill-opacity:1;fill-rule:nonzero;stroke:none" />
    <path
       id="path4392"
       d="m 442.43578,410.7476 c 0,-2.24121 1.81641,-4.0625 4.0625,-4.0625 2.2461,0 4.06739,1.82129 4.06739,4.0625 0,2.24609 -1.82129,4.06738 -4.06739,4.06738 -2.24609,0 -4.0625,-1.82129 -4.0625,-4.06738"
       style="fill:#4a2123;fill-opacity:1;fill-rule:nonzero;stroke:none" />
    <path
       id="path4394"
       d="m 508.94457,406.9976 c 0,-2.24121 1.82128,-4.0625 4.0625,-4.0625 2.25097,0 4.06738,1.82129 4.06738,4.0625 0,2.24609 -1.81641,4.06738 -4.06738,4.06738 -2.24122,0 -4.0625,-1.82129 -4.0625,-4.06738"
       style="fill:#4a2123;fill-opacity:1;fill-rule:nonzero;stroke:none" />
    <path
       id="path4396"
       d="m 499.12523,442.26615 c -4.35546,1.78712 -8.32519,2.66602 -12.30469,2.76855 0.34669,-1.93358 0.70313,-3.8623 0.91798,-5.82031 0.32226,-2.97851 -0.13184,-5.99609 -0.18555,-8.99414 3.78417,-2.34375 10.64453,-11.91406 7.48535,-12.53417 -5.24414,-1.875 -23.56934,-1.43555 -23.7793,1.32812 -0.18554,2.48535 9.52148,10.1123 13.76953,11.5039 0.0195,2.03614 0.18555,4.0625 0.27344,6.1084 0.12695,2.82715 -0.48829,5.60548 -1.00586,8.37403 -3.44238,-0.19043 -6.95313,-0.92774 -10.78613,-2.15333 -1.53808,-0.49316 -2.19238,1.91895 -0.66406,2.40724 9.72656,3.11523 17.43164,3.33008 26.94335,-0.57617 1.46973,-0.60548 0.83009,-3.02247 -0.66406,-2.41212"
       style="fill:#4a2123;fill-opacity:1;fill-rule:nonzero;stroke:none" />
  </g>
</svg>
