<?xml version="1.0" encoding="UTF-8" standalone="no"?>
<svg
   xmlns:dc="http://purl.org/dc/elements/1.1/"
   xmlns:cc="http://creativecommons.org/ns#"
   xmlns:rdf="http://www.w3.org/1999/02/22-rdf-syntax-ns#"
   xmlns:svg="http://www.w3.org/2000/svg"
   xmlns="http://www.w3.org/2000/svg"
   version="1.1"
   id="svg8005"
   viewBox="0 0 184.73522 163.52464"
   height="46.150288mm"
   width="52.136383mm">
  <defs
     id="defs8007" />
  <metadata
     id="metadata8010">
    <rdf:RDF>
      <cc:Work
         rdf:about="">
        <dc:format>image/svg+xml</dc:format>
        <dc:type
           rdf:resource="http://purl.org/dc/dcmitype/StillImage" />
        <dc:title></dc:title>
      </cc:Work>
    </rdf:RDF>
  </metadata>
  <g
     transform="translate(-179.06082,-370.59988)"
     id="layer1">
    <path
       id="path4270"
       d="m 268.68861,492.5364 c 0.43946,0 0.86915,-0.0146 1.30371,-0.0341 l -2.68555,0 c 0.45899,0.0244 0.91797,0.0341 1.38184,0.0341"
       style="fill:#d72330;fill-opacity:1;fill-rule:nonzero;stroke:none" />
    <path
       id="path4272"
       d="m 302.09193,528.07839 -7.54395,-1.20605 c -0.80077,-4.52149 -1.27929,-9.0625 -1.42577,-13.6377 -0.15625,-5.20996 0.01,-10.43945 0.49805,-15.66406 0.41503,-5.21973 1.19628,-10.43456 2.11425,-15.60059 0.48828,-3.84276 1.89453,-7.50976 1.85547,-11.42577 l 0.0146,0.0195 c 3.56445,-22.66113 13.3789,-45.33692 13.3789,-45.33692 l -37.05567,-8.47167 c -1.88476,14.73632 -11.38183,16.94824 -11.38183,16.94824 l 0.0976,0.1025 c -2.74902,0.63477 -5.38086,1.63575 -7.9834,2.79786 -2.06544,0.91796 -13.5791,4.02344 -25.3711,3.70116 -11.79687,-0.32715 -21.75781,-0.77147 -24.04296,-0.77147 -1.32813,0 -2.62696,0.15136 -3.88673,0.42968 -0.55664,-1.99707 -1.05956,-3.94531 -1.45996,-5.82031 l -1.48438,-6.8213 c -0.51757,-2.28515 -0.79101,-4.71191 -0.57129,-7.15331 0.20509,-2.44141 0.72267,-4.90235 1.48438,-7.33399 0.72266,-2.45117 1.69922,-4.87792 2.88086,-7.24121 2.31934,-4.74121 5.39063,-9.28711 8.97462,-13.41796 l -0.63476,-0.77149 c -4.75099,3.07129 -8.90138,7.00195 -12.5342,11.51855 -1.78222,2.28516 -3.40331,4.73634 -4.79492,7.37305 -1.34765,2.65625 -2.45605,5.49316 -3.208,8.48145 -0.74708,2.97851 -1.32813,6.09862 -1.41601,9.30664 -0.0781,3.19823 0.58105,6.42577 1.89941,9.30663 0.96679,2.13379 2.20702,4.10645 3.65722,5.87403 -5.1709,3.79395 -8.60351,10.0586 -8.77441,16.73829 -0.19043,0.93261 -0.29785,1.88963 -0.28809,2.88085 0.0488,-0.0733 0.0977,0.14648 0.1416,0.26367 l 0.13184,0.46386 c 0.0879,0.32715 0.16601,0.66895 0.24414,1.0254 0.15625,0.708 0.28809,1.44043 0.41016,2.18262 0.23925,1.49413 0.41992,3.02246 0.54687,4.55566 0.24414,3.07617 0.25879,6.18164 -0.01,9.24805 -0.54687,6.12305 -2.19238,12.14355 -5.88379,17.30469 l -0.23437,0.20996 c -1.16699,1.07421 -1.68457,2.7539 -1.18653,4.375 l 8.00293,26.17187 0.13672,0.40528 c 0.43457,1.26952 1.59668,2.21191 3.01757,2.31445 l 8.90625,0.5957 c 1.63575,0.11237 3.125,-1.01563 3.42774,-2.66601 0.32226,-1.7627 -0.84961,-3.46192 -2.61719,-3.78907 l -6.19629,-1.1377 -5.34667,-21.04491 c 2.75879,-1.79687 5.32226,-3.97461 7.6123,-6.39649 1.31347,-1.38672 2.5293,-2.85645 3.68164,-4.375 -0.80567,1.85059 -1.77734,3.64258 -2.98828,5.33692 l -0.23437,0.20996 c -1.167,1.07421 -1.68458,2.7539 -1.19142,4.375 l 8.00294,26.17187 0.1416,0.40528 c 0.43456,1.26952 1.59668,2.21191 3.01758,2.31445 l 8.90625,0.5957 c 1.63086,0.11237 3.12011,-1.01563 3.42285,-2.66601 0.32715,-1.7627 -0.84472,-3.46192 -2.61719,-3.78907 l -6.1914,-1.1377 -5.34668,-21.04491 c 2.75878,-1.79687 5.32227,-3.97461 7.61231,-6.39649 2.91015,-3.07128 5.40527,-6.52832 7.54882,-10.15137 2.14355,-3.63769 3.93555,-7.44629 5.43945,-11.37695 l 0.005,-0.0146 c 1.00585,-0.0293 2.03125,0 3.07617,0.11238 8.1836,0.91796 16.68946,5.76171 20.12696,9.18945 2.61719,2.39746 5.66406,4.33594 9.01366,5.67871 -0.044,2.28515 -0.0489,4.57031 0.01,6.85546 0.22949,5.7959 0.82519,11.60157 2.05078,17.32423 1.22558,5.708 3.00293,11.35254 5.69825,16.57715 l 0.88378,2.19237 2.05078,0.13184 10.24414,0.63476 c 1.54297,0.0976 2.94922,-0.99608 3.19825,-2.5537 0.26855,-1.65527 -0.86427,-3.21777 -2.52442,-3.48633 l -7.53906,-1.20605 c -0.80079,-4.52149 -1.28419,-9.0625 -1.43066,-13.6377 -0.15625,-5.20997 0.01,-10.43945 0.49804,-15.66407 0.13672,-1.71875 0.32227,-3.4375 0.53222,-5.16112 3.24219,-0.27833 6.3379,-1.07423 9.19434,-2.30958 -0.0489,2.38282 -0.0586,4.77539 0.005,7.1582 0.22949,5.7959 0.8252,11.60157 2.05077,17.32423 1.22072,5.708 3.00294,11.35254 5.69825,16.57715 l 0.88379,2.19237 2.05078,0.13184 10.24415,0.63476 c 1.54296,0.0976 2.94921,-0.99608 3.19335,-2.5537 0.26856,-1.65527 -0.85938,-3.21777 -2.51953,-3.48633"
       style="fill:#735147;fill-opacity:1;fill-rule:nonzero;stroke:none" />
    <path
       id="path4274"
       d="m 323.66419,403.02468 c 5.25879,30.22461 -14.61913,46.69434 -27.46093,48.9209 -10.94727,1.90919 -35,-8.47656 -40.29297,-38.91601 -3.10547,-17.85157 11.1914,-34.84375 29.12598,-37.46583 17.9248,-2.62695 35.52734,9.60938 38.62792,27.46094"
       style="fill:#b0735e;fill-opacity:1;fill-rule:nonzero;stroke:none" />
    <path
       id="path4276"
       d="m 314.38197,385.90067 c 0,0 45.70312,-24.5752 49.41406,-11.43555 0,0 -11.52832,51.60643 -40.71289,40.625"
       style="fill:#b0735e;fill-opacity:1;fill-rule:nonzero;stroke:none" />
    <path
       id="path4278"
       d="m 259.48939,395.44655 c 0,0 -51.31836,-7.70995 -50.37597,5.91309 0,0 28.2666,44.6875 52.03125,24.49708"
       style="fill:#b0735e;fill-opacity:1;fill-rule:nonzero;stroke:none" />
    <path
       id="path4280"
       d="m 301.44739,411.73074 c 1.60157,9.23828 7.66114,15.89844 13.5254,14.88281 5.86425,-1.02051 9.3164,-9.33593 7.70997,-18.57422 -1.60645,-9.2334 -7.66114,-15.89844 -13.5254,-14.87793 -5.86425,1.02052 -9.3164,9.33594 -7.70997,18.56934"
       style="fill:#7f5c51;fill-opacity:1;fill-rule:nonzero;stroke:none" />
    <path
       id="path4282"
       d="m 259.37221,418.25905 c 1.60643,9.2334 7.66112,15.89844 13.52538,14.87305 5.86427,-1.01562 9.31642,-9.33105 7.70997,-18.56445 -1.60645,-9.23828 -7.66114,-15.90332 -13.52539,-14.88281 -5.86426,1.02539 -9.31641,9.33594 -7.70996,18.57421"
       style="fill:#7f5c51;fill-opacity:1;fill-rule:nonzero;stroke:none" />
    <path
       id="path4284"
       d="m 302.89759,439.3821 c -1.88965,1.89942 -3.67676,3.33985 -6.35742,3.94532 l -0.20019,0.0292 c -0.20509,-1.11817 -0.18066,-2.26563 -0.39551,-3.38379 -0.15136,-0.79101 -0.46386,-1.54298 -0.68848,-2.31445 1.08399,-0.52735 1.58692,-1.38184 2.25587,-2.40235 0.34178,-0.52246 0.66406,-1.03515 0.9082,-1.60645 0.40038,-0.94238 0.68358,-2.04589 0.48827,-3.07129 -0.43456,-2.33886 -3.53026,-3.7207 -6.90917,-3.09081 -3.3789,0.62987 -5.7666,3.04199 -5.33203,5.38085 0.20995,1.12305 0.87401,2.07031 1.71386,2.8125 1.60157,1.4209 3.52539,2.74902 5.69337,2.36329 0.13671,0.46875 0.30761,0.93261 0.46386,1.40625 0.42969,1.28906 0.35645,2.71972 0.57617,4.0625 -2.1582,0.1416 -4.4336,-0.35645 -6.4795,-0.74708 -0.78612,-0.15136 -1.12303,1.05469 -0.33202,1.20606 2.86132,0.54688 5.6543,0.96679 8.56934,0.56153 2.8418,-0.4004 4.9707,-2.31934 6.90917,-4.26759 0.57129,-0.57129 -0.3125,-1.45507 -0.88379,-0.88379"
       style="fill:#211717;fill-opacity:1;fill-rule:nonzero;stroke:none" />
    <path
       id="path4286"
       d="m 269.99232,414.6653 c -2.51465,0 -4.61425,2.09962 -4.61425,4.61427 0,2.51465 2.0996,4.61426 4.61425,4.61426 2.51465,0 4.61426,-2.09961 4.61426,-4.61426 0,-2.51465 -2.09961,-4.61427 -4.61426,-4.61427"
       style="fill:#110f11;fill-opacity:1;fill-rule:nonzero;stroke:none" />
    <path
       id="path4288"
       d="m 312.06752,405.27078 c -2.51954,0 -4.61914,2.09961 -4.61914,4.61426 0,2.51464 2.0996,4.61425 4.61914,4.61425 2.51465,0 4.61425,-2.09961 4.61425,-4.61425 0,-2.51465 -2.0996,-4.61426 -4.61425,-4.61426"
       style="fill:#110f11;fill-opacity:1;fill-rule:nonzero;stroke:none" />
  </g>
</svg>
