<?xml version="1.0" encoding="UTF-8" standalone="no"?>
<svg
   xmlns:dc="http://purl.org/dc/elements/1.1/"
   xmlns:cc="http://creativecommons.org/ns#"
   xmlns:rdf="http://www.w3.org/1999/02/22-rdf-syntax-ns#"
   xmlns:svg="http://www.w3.org/2000/svg"
   xmlns="http://www.w3.org/2000/svg"
   version="1.1"
   id="svg9929"
   viewBox="0 0 211.08951 273.25715"
   height="77.11924mm"
   width="59.57415mm">
  <defs
     id="defs9931" />
  <metadata
     id="metadata9934">
    <rdf:RDF>
      <cc:Work
         rdf:about="">
        <dc:format>image/svg+xml</dc:format>
        <dc:type
           rdf:resource="http://purl.org/dc/dcmitype/StillImage" />
        <dc:title></dc:title>
      </cc:Work>
    </rdf:RDF>
  </metadata>
  <g
     transform="translate(-237.31239,-355.73363)"
     id="layer1">
    <path
       id="path4290"
       d="m 430.30764,364.04292 c 0.4834,2.24609 -0.61035,4.13574 -1.26465,6.20117 -0.32715,1.0254 -0.69824,2.09961 -0.98633,3.19336 2.77344,0.65919 3.38379,4.18457 1.83105,6.11329 3.26173,2.8955 9.04785,6.79687 11.09864,10.07812 5.07324,-2.17774 9.11621,-6.4502 6.69434,-12.5586 -1.96778,-4.96581 -6.63575,-8.88184 -10.96192,-11.79687 -1.84571,-1.25 -5.64453,-4.38477 -9.47755,-6.41602 1.52344,1.36719 2.69044,3.4375 3.06642,5.18555"
       style="fill:#261717;fill-opacity:1;fill-rule:nonzero;stroke:none" />
    <path
       id="path4292"
       d="m 255.47853,470.94721 c -1.48926,-2.21679 -2.81738,-5 -5.88379,-5 -4.34082,0 -10.12695,11.57715 -7.95898,15.43458 1.43554,2.54882 5.60058,5.51757 8.2666,7.23632 0.41015,-6.92382 1.43066,-12.52441 3.41308,-15.50292 0.45899,-0.68848 1.19629,-1.41602 2.16309,-2.16798"
       style="fill:#2e1c17;fill-opacity:1;fill-rule:nonzero;stroke:none" />
    <path
       id="path4294"
       d="m 279.98537,549.39449 c -2.16309,4.9414 -12.02637,15.9082 -18.59864,25.24902 -0.47363,1.28906 -0.5957,2.38769 -0.21484,3.21289 2.37793,5.13184 15.8789,37.62206 15.77637,43.65234 -0.0977,6.03027 18.59375,5.90821 14.13086,2.41211 -4.46289,-3.49609 -11.09375,-31.11328 -12.06055,-39.07226 -0.96192,-7.95899 21.22559,-30.39063 24.60448,-38.10548 2.21193,-5.05859 2.76856,-18.46679 3.43263,-28.44726 -6.89454,-2.07031 -14.31641,-4.83886 -22.2461,-8.52539 -1.92871,4.74609 -1.44531,31.90918 -4.82421,39.62403"
       style="fill:#2e1c17;fill-opacity:1;fill-rule:nonzero;stroke:none" />
    <path
       id="path4296"
       d="m 432.01662,389.94624 c -1.9336,0.0635 -3.125,0.625 -3.69141,1.45996 -3.208,4.67285 7.03614,11.66016 11.9336,8.00781 0.46386,-0.34667 0.88379,-0.78125 1.24023,-1.32812 0.98145,-1.52832 2.50977,-5.27344 1.23536,-7.01172 -0.32715,-0.44433 -0.84474,-0.75196 -1.4795,-0.97656 -2.59278,-0.89844 -7.21191,-0.21972 -9.23828,-0.15137"
       style="fill:#211e1e;fill-opacity:1;fill-rule:nonzero;stroke:none" />
    <path
       id="path4298"
       d="m 406.95802,375.70307 c 0.48829,0 0.91309,0.0928 1.30372,0.23438 3.4668,1.2207 3.04198,7.26562 -1.30372,7.26562 -0.20018,0 -0.38573,-0.0293 -0.57128,-0.0538 -4.24317,-0.57616 -4.0625,-7.44628 0.57128,-7.44628 z m 21.36719,15.70313 c 0.56641,-0.83496 1.75781,-1.39649 3.69141,-1.45996 2.02637,-0.0684 6.6455,-0.74707 9.23828,0.15137 -0.0781,-0.15625 -0.1709,-0.3125 -0.26855,-0.46875 -2.05079,-3.28125 -7.83691,-7.18262 -11.09864,-10.07812 -0.60059,0.75195 -1.52344,1.26465 -2.7832,1.26465 -4.83886,0 -4.83886,-7.5 0,-7.5 0.3418,0 0.6543,0.0489 0.95215,0.122 0.28809,-1.09375 0.65918,-2.16797 0.98633,-3.19337 0.6543,-2.06542 1.74805,-3.95507 1.26465,-6.20116 -0.37598,-1.74805 -1.54298,-3.81836 -3.06642,-5.18555 -0.62011,-0.55176 -1.28906,-1.00097 -1.99706,-1.24511 -3.99414,-1.38184 -8.74512,-1.44044 -12.93457,-1.74318 l 0,0.005 c -0.67383,-0.0489 -1.33789,-0.0879 -1.99219,-0.1025 -3.87206,-0.083 -7.72949,-0.0146 -11.58203,0.1709 0.33203,0.1025 0.64453,0.24414 0.94238,0.42969 0.73731,0.45899 1.35742,1.1914 1.82617,2.25586 0.87403,2.00683 1.44043,4.16504 1.87012,6.3037 1.00586,5.00978 1.21582,11.02052 -1.0791,15.72755 -2.89063,5.95214 -8.84765,9.04297 -15.14648,9.36523 -0.41992,2.27051 -0.8838,4.50684 -1.36719,6.6211 -1.60645,7.03612 -2.83692,12.45605 -5.37598,17.93945 2.17286,2.48535 13.01758,16.29882 36.9043,10.47364 0,0 -0.0976,-2.55372 0.14648,-3.71094 l 0.21484,-0.0244 c 0.0781,-1.49415 0.14161,-2.7002 0.19044,-3.55957 6.44531,1.29395 11.69434,2.0752 13.10059,1.55761 1.24511,-0.46386 2.65625,-2.52929 4.04296,-5.34667 -3.02246,-0.21485 -8.84765,-1.38673 -12.40234,-6.97754 l 1.62598,-1.04004 c 3.39843,5.34668 9.35546,6.05469 11.64062,6.12304 -0.37597,0.86915 -0.62012,1.19141 -0.81055,1.78224 2.00195,-4.10645 3.93555,-9.76075 5.2002,-14.44825 -4.89746,3.65235 -15.1416,-3.33497 -11.9336,-8.00782"
       style="fill:#68352b;fill-opacity:1;fill-rule:nonzero;stroke:none" />
    <path
       id="path4300"
       d="m 417.08986,432.43647 c -2.99316,0.66895 -4.4873,0.78614 -6.78222,0.96192 -20.86914,1.61621 -30.03907,-7.96875 -33.64258,-12.17285 -0.78614,1.18652 -1.65527,2.40235 -2.61719,3.66698 -1.5918,2.07032 -7.48047,4.83399 -15.84961,8.01759 -22.55372,8.5791 -63.18359,20.24414 -86.88965,29.95605 -7.12403,2.91504 -12.71485,5.6543 -15.83008,8.08105 -0.9668,0.75196 -1.7041,1.4795 -2.16309,2.16798 -1.98242,2.97851 -3.00293,8.5791 -3.41308,15.50292 -1.37696,23.39356 4.2334,61.9336 3.41308,65.83985 -1.06445,5.06836 -18.15429,20.91796 -15.77636,26.0498 2.37793,5.13184 15.87402,37.62695 15.77636,43.65235 -0.10253,6.03028 18.58887,5.9082 14.13086,2.4121 -4.46289,-3.49609 -11.09863,-31.10839 -12.06054,-39.06737 -0.34668,-2.86622 2.30957,-7.60743 6.00097,-12.86133 6.57227,-9.34082 16.43555,-20.30762 18.59864,-25.24902 3.3789,-7.71485 2.8955,-34.87794 4.82421,-39.62403 7.92969,3.68653 15.35156,6.45508 22.2461,8.52539 36.48926,10.98632 57.82716,2.39746 57.82716,6.80664 0,5.23926 -2.89552,30.32227 0,38.76465 2.89062,8.44238 1.68456,55.71288 5.30272,57.88086 3.61816,2.17285 15.44923,1.20605 11.83594,-3.61816 -3.61816,-4.82423 -0.93261,-89.97559 3.16895,-89.55567 4.10156,0.41504 10.07812,92.45117 13.93555,93.65723 3.8623,1.20605 18.6621,1.17187 11.90917,-3.16406 -6.75292,-4.3457 -2.5,-74.49219 -4.18945,-85.34669 -1.68945,-10.85938 7.71973,-33.76464 7.71973,-44.13574 0,-6.97754 1.52832,-37.7539 2.52441,-57.14844"
       style="fill:#68352b;fill-opacity:1;fill-rule:nonzero;stroke:none" />
    <path
       id="path4302"
       d="m 417.30959,425.05855 c -23.88672,5.82519 -34.73144,-7.98829 -36.9043,-10.47364 l -0.16113,-0.18066 c -1.7627,-1.92871 -7.28027,2.60742 -4.69726,5.5127 0.29296,0.32714 0.66406,0.77636 1.11816,1.30859 3.60351,4.2041 12.77344,13.78906 33.64258,12.17285 2.29492,-0.17578 3.78906,-0.29297 6.78222,-0.96192 0.58105,-0.12695 1.19629,-0.27343 1.90918,-0.44433 4.26758,-1.05957 1.28906,-11.05469 -1.32813,-10.66894 l -0.21484,0.0244 c -0.24413,1.15723 -0.14648,3.71094 -0.14648,3.71094"
       style="fill:#d9282e;fill-opacity:1;fill-rule:nonzero;stroke:none" />
    <path
       id="path4304"
       d="m 406.38674,383.14936 c 0.18555,0.0244 0.3711,0.0538 0.57128,0.0538 4.3457,0 4.77052,-6.04492 1.30372,-7.26562 -0.39063,-0.1416 -0.81543,-0.23438 -1.30372,-0.23438 -4.63378,0 -4.81445,6.87013 -0.57128,7.44629"
       style="fill:#211e1e;fill-opacity:1;fill-rule:nonzero;stroke:none" />
    <path
       id="path4306"
       d="m 428.05666,373.43745 c -0.29785,-0.0733 -0.61035,-0.122 -0.95215,-0.122 -4.83886,0 -4.83886,7.5 0,7.5 1.25976,0 2.18261,-0.5127 2.7832,-1.26465 1.55274,-1.92871 0.94239,-5.4541 -1.83105,-6.11329"
       style="fill:#211e1e;fill-opacity:1;fill-rule:nonzero;stroke:none" />
    <path
       id="path4308"
       d="m 402.29494,380.65914 c 2.29492,-4.70704 2.08496,-10.71778 1.0791,-15.72755 -0.42969,-2.13867 -0.99609,-4.29688 -1.87012,-6.3037 -0.46875,-1.06447 -1.08886,-1.79688 -1.82617,-2.25587 -0.29785,-0.18555 -0.61035,-0.32715 -0.94238,-0.42968 -5.00977,-1.54785 -13.69141,5.95215 -16.81641,8.05663 -4.32617,2.91993 -8.99414,6.83594 -10.96191,11.80177 -3.12011,7.87597 4.50684,12.71972 11.23047,13.9209 1.6455,0.29296 3.31543,0.38573 4.96094,0.30272 6.29883,-0.32226 12.25585,-3.41309 15.14648,-9.36522"
       style="fill:#261717;fill-opacity:1;fill-rule:nonzero;stroke:none" />
    <path
       id="path4310"
       d="m 424.22854,405.95699 -1.62598,1.04003 c 3.55469,5.59082 9.37988,6.76269 12.40234,6.97754 l 0.0146,0 0.039,-0.11225 c 0.19043,-0.59082 0.43458,-0.91309 0.81055,-1.78224 -2.28516,-0.0684 -8.24218,-0.77636 -11.64062,-6.12303"
       style="fill:#211e1e;fill-opacity:1;fill-rule:nonzero;stroke:none" />
    <path
       id="path4460"
       d="m 435.55666,398.66206 c -1.30371,4.4873 -2.77344,9.1748 -5.18066,13.47168 -0.42481,0.76172 1.37695,1.04981 1.79687,0.29785 2.40723,-4.29199 3.87207,-8.98438 5.17578,-13.47168 0.2295,-0.7959 -1.5625,-1.09375 -1.79199,-0.29785"
       style="fill:#110f11;fill-opacity:1;fill-rule:nonzero;stroke:none" />
  </g>
</svg>
